M48
; DRILL file {KiCad 6.0.2+dfsg-1} date 2022年12月11日 21時53分59秒
; FORMAT={-:-/ absolute / inch / decimal}
; #@! TF.CreationDate,2022-12-11T21:53:59+09:00
; #@! TF.GenerationSoftware,Kicad,Pcbnew,6.0.2+dfsg-1
; #@! TF.FileFunction,Plated,1,2,PTH
FMAT,2
INCH
; #@! TA.AperFunction,Plated,PTH,ViaDrill
T1C0.0157
; #@! TA.AperFunction,Plated,PTH,ComponentDrill
T2C0.0315
; #@! TA.AperFunction,Plated,PTH,ComponentDrill
T3C0.0354
; #@! TA.AperFunction,Plated,PTH,ComponentDrill
T4C0.0394
%
G90
G05
T1
X5.15Y-2.65
X5.175Y-3.2
X5.525Y-3.8
X5.65Y-4.0
X5.7Y-2.475
X5.7585Y-2.694
X5.7643Y-1.9339
X5.875Y-4.2
X5.9849Y-4.0906
X6.1183Y-3.2799
X6.1622Y-3.2081
X6.1647Y-4.08
X6.2108Y-3.1425
X6.7927Y-2.0966
T2
X5.35Y-3.05
X5.35Y-3.15
X5.35Y-3.25
X5.35Y-3.35
X5.35Y-3.45
X5.35Y-3.55
X5.45Y-2.95
X5.45Y-3.05
X5.45Y-3.15
X5.45Y-3.25
X5.45Y-3.35
X5.45Y-3.45
X5.45Y-3.55
X5.45Y-3.65
X5.55Y-2.95
X5.55Y-3.05
X5.55Y-3.55
X5.55Y-3.65
X5.65Y-2.95
X5.65Y-3.05
X5.65Y-3.55
X5.65Y-3.65
X5.75Y-2.95
X5.75Y-3.05
X5.75Y-3.55
X5.75Y-3.65
X5.85Y-2.95
X5.85Y-3.05
X5.85Y-3.55
X5.85Y-3.65
X5.95Y-2.95
X5.95Y-3.05
X5.95Y-3.15
X5.95Y-3.25
X5.95Y-3.35
X5.95Y-3.45
X5.95Y-3.55
X5.95Y-3.65
X6.05Y-3.05
X6.05Y-3.15
X6.05Y-3.25
X6.05Y-3.35
X6.05Y-3.45
X6.05Y-3.55
T3
X5.15Y-1.6
X5.15Y-1.7
T4
X4.672Y-1.6114
X4.672Y-1.7886
X4.7Y-2.4
X4.7Y-2.5
X4.7Y-2.6
X4.7Y-2.7
X4.7Y-2.8
X4.7Y-2.9
X4.7Y-3.0
X4.7Y-3.1
X4.7Y-3.2
X4.7Y-3.3
X4.7Y-3.4
X4.7Y-3.5
X4.7Y-3.6
X4.7Y-3.7
X4.7Y-3.8
X4.7Y-3.9
X4.7Y-4.0
X4.7Y-4.1
X4.7Y-4.2
X4.8Y-2.4
X4.8Y-2.5
X4.8Y-2.6
X4.8Y-2.7
X4.8Y-2.8
X4.8Y-2.9
X4.8Y-3.0
X4.8Y-3.1
X4.8Y-3.2
X4.8Y-3.3
X4.8Y-3.4
X4.8Y-3.5
X4.8Y-3.6
X4.8Y-3.7
X4.8Y-3.8
X4.8Y-3.9
X4.8Y-4.0
X4.8Y-4.1
X4.8Y-4.2
X4.928Y-1.6114
X4.928Y-1.7886
X5.0Y-2.5
X5.0Y-2.75
X5.15Y-4.15
X5.35Y-2.25
X5.6Y-4.2
X5.75Y-3.95
X5.975Y-2.2
X6.2Y-4.2
X6.25Y-3.9
X6.45Y-4.15
X6.525Y-1.8
X6.525Y-1.9
X6.6502Y-2.2998
X6.6502Y-2.3998
X6.6502Y-2.4998
X6.6502Y-2.5998
X6.6502Y-2.6998
X6.6502Y-2.7998
X6.6502Y-2.8998
X6.6502Y-2.9998
X6.6502Y-3.0998
X6.6502Y-3.1998
X6.6502Y-3.2998
X6.6502Y-3.3998
X6.6502Y-3.4998
X6.6502Y-3.5998
X6.6502Y-3.6998
X6.6502Y-3.7998
X6.6502Y-3.8998
X6.6502Y-3.9998
X6.6502Y-4.0998
X6.6502Y-4.1998
X6.7502Y-2.2998
X6.7502Y-2.3998
X6.7502Y-2.4998
X6.7502Y-2.5998
X6.7502Y-2.6998
X6.7502Y-2.7998
X6.7502Y-2.8998
X6.7502Y-2.9998
X6.7502Y-3.0998
X6.7502Y-3.1998
X6.7502Y-3.2998
X6.7502Y-3.3998
X6.7502Y-3.4998
X6.7502Y-3.5998
X6.7502Y-3.6998
X6.7502Y-3.7998
X6.7502Y-3.8998
X6.7502Y-3.9998
X6.7502Y-4.0998
X6.7502Y-4.1998
X6.95Y-2.85
X6.95Y-4.1
X7.1Y-2.4
X7.1Y-2.5
X7.1Y-2.6
X7.1Y-2.7
X7.1Y-2.8
X7.1Y-2.9
X7.1Y-3.0
X7.1Y-3.1
X7.1Y-3.2
X7.1Y-3.3
X7.1Y-3.4
X7.1Y-3.5
X7.1Y-3.6
X7.1Y-3.7
X7.1Y-3.8
X7.1Y-3.9
X7.1Y-4.0
X7.1Y-4.1
X7.1Y-4.2
X7.2Y-1.8
X7.2Y-2.4
X7.2Y-2.5
X7.2Y-2.6
X7.2Y-2.7
X7.2Y-2.8
X7.2Y-2.9
X7.2Y-3.0
X7.2Y-3.1
X7.2Y-3.2
X7.2Y-3.3
X7.2Y-3.4
X7.2Y-3.5
X7.2Y-3.6
X7.2Y-3.7
X7.2Y-3.8
X7.2Y-3.9
X7.2Y-4.0
X7.2Y-4.1
X7.2Y-4.2
T0
M30
