%TF.GenerationSoftware,KiCad,Pcbnew,6.0.2+dfsg-1*%
%TF.CreationDate,2023-01-11T22:24:02+09:00*%
%TF.ProjectId,Akashi-11,416b6173-6869-42d3-9131-2e6b69636164,rev?*%
%TF.SameCoordinates,Original*%
%TF.FileFunction,Soldermask,Bot*%
%TF.FilePolarity,Negative*%
%FSLAX46Y46*%
G04 Gerber Fmt 4.6, Leading zero omitted, Abs format (unit mm)*
G04 Created by KiCad (PCBNEW 6.0.2+dfsg-1) date 2023-01-11 22:24:02*
%MOMM*%
%LPD*%
G01*
G04 APERTURE LIST*
%ADD10C,2.000000*%
%ADD11R,1.700000X1.700000*%
%ADD12O,1.700000X1.700000*%
%ADD13R,1.800000X1.800000*%
%ADD14C,1.800000*%
%ADD15R,1.422400X1.422400*%
%ADD16C,1.422400*%
%ADD17C,1.700000*%
G04 APERTURE END LIST*
D10*
%TO.C,TP10*%
X158750000Y-99060000D03*
%TD*%
%TO.C,TP2*%
X130810000Y-105410000D03*
%TD*%
%TO.C,TP9*%
X127000000Y-63500000D03*
%TD*%
%TO.C,TP13*%
X146050000Y-100330000D03*
%TD*%
%TO.C,TP12*%
X157480000Y-106680000D03*
%TD*%
%TO.C,TP7*%
X151765000Y-55880000D03*
%TD*%
D11*
%TO.C,J1*%
X171455000Y-106675000D03*
D12*
X168915000Y-106675000D03*
X171455000Y-104135000D03*
X168915000Y-104135000D03*
X171455000Y-101595000D03*
X168915000Y-101595000D03*
X171455000Y-99055000D03*
X168915000Y-99055000D03*
X171455000Y-96515000D03*
X168915000Y-96515000D03*
X171455000Y-93975000D03*
X168915000Y-93975000D03*
X171455000Y-91435000D03*
X168915000Y-91435000D03*
X171455000Y-88895000D03*
X168915000Y-88895000D03*
X171455000Y-86355000D03*
X168915000Y-86355000D03*
X171455000Y-83815000D03*
X168915000Y-83815000D03*
X171455000Y-81275000D03*
X168915000Y-81275000D03*
X171455000Y-78735000D03*
X168915000Y-78735000D03*
X171455000Y-76195000D03*
X168915000Y-76195000D03*
X171455000Y-73655000D03*
X168915000Y-73655000D03*
X171455000Y-71115000D03*
X168915000Y-71115000D03*
X171455000Y-68575000D03*
X168915000Y-68575000D03*
X171455000Y-66035000D03*
X168915000Y-66035000D03*
X171455000Y-63495000D03*
X168915000Y-63495000D03*
X171455000Y-60955000D03*
X168915000Y-60955000D03*
X171455000Y-58415000D03*
X168915000Y-58415000D03*
%TD*%
D13*
%TO.C,D3*%
X130810000Y-43180000D03*
D14*
X130810000Y-40640000D03*
%TD*%
D10*
%TO.C,TP4*%
X135890000Y-57150000D03*
%TD*%
%TO.C,TP5*%
X176530000Y-104140000D03*
%TD*%
D11*
%TO.C,JP3*%
X165735000Y-48260000D03*
D12*
X165735000Y-45720000D03*
%TD*%
D10*
%TO.C,TP3*%
X182880000Y-45720000D03*
%TD*%
%TO.C,TP6*%
X176530000Y-72390000D03*
%TD*%
D15*
%TO.C,U1*%
X146050000Y-77470000D03*
D16*
X143510000Y-74930000D03*
X143510000Y-77470000D03*
X140970000Y-74930000D03*
X140970000Y-77470000D03*
X138430000Y-74930000D03*
X135890000Y-77470000D03*
X138430000Y-77470000D03*
X135890000Y-80010000D03*
X138430000Y-80010000D03*
X135890000Y-82550000D03*
X138430000Y-82550000D03*
X135890000Y-85090000D03*
X138430000Y-85090000D03*
X135890000Y-87630000D03*
X138430000Y-87630000D03*
X135890000Y-90170000D03*
X138430000Y-92710000D03*
X138430000Y-90170000D03*
X140970000Y-92710000D03*
X140970000Y-90170000D03*
X143510000Y-92710000D03*
X143510000Y-90170000D03*
X146050000Y-92710000D03*
X146050000Y-90170000D03*
X148590000Y-92710000D03*
X148590000Y-90170000D03*
X151130000Y-92710000D03*
X153670000Y-90170000D03*
X151130000Y-90170000D03*
X153670000Y-87630000D03*
X151130000Y-87630000D03*
X153670000Y-85090000D03*
X151130000Y-85090000D03*
X153670000Y-82550000D03*
X151130000Y-82550000D03*
X153670000Y-80010000D03*
X151130000Y-80010000D03*
X153670000Y-77470000D03*
X151130000Y-74930000D03*
X151130000Y-77470000D03*
X148590000Y-74930000D03*
X148590000Y-77470000D03*
X146050000Y-74930000D03*
%TD*%
D10*
%TO.C,TP11*%
X163830000Y-105410000D03*
%TD*%
%TO.C,TP8*%
X127000000Y-69850000D03*
%TD*%
D17*
%TO.C,SW1*%
X118670000Y-40930000D03*
X125170000Y-40930000D03*
X118670000Y-45430000D03*
X125170000Y-45430000D03*
%TD*%
D10*
%TO.C,TP1*%
X142240000Y-106680000D03*
%TD*%
D11*
%TO.C,CN10*%
X180340000Y-60960000D03*
D12*
X182880000Y-60960000D03*
X180340000Y-63500000D03*
X182880000Y-63500000D03*
X180340000Y-66040000D03*
X182880000Y-66040000D03*
X180340000Y-68580000D03*
X182880000Y-68580000D03*
X180340000Y-71120000D03*
X182880000Y-71120000D03*
X180340000Y-73660000D03*
X182880000Y-73660000D03*
X180340000Y-76200000D03*
X182880000Y-76200000D03*
X180340000Y-78740000D03*
X182880000Y-78740000D03*
X180340000Y-81280000D03*
X182880000Y-81280000D03*
X180340000Y-83820000D03*
X182880000Y-83820000D03*
X180340000Y-86360000D03*
X182880000Y-86360000D03*
X180340000Y-88900000D03*
X182880000Y-88900000D03*
X180340000Y-91440000D03*
X182880000Y-91440000D03*
X180340000Y-93980000D03*
X182880000Y-93980000D03*
X180340000Y-96520000D03*
X182880000Y-96520000D03*
X180340000Y-99060000D03*
X182880000Y-99060000D03*
X180340000Y-101600000D03*
X182880000Y-101600000D03*
X180340000Y-104140000D03*
X182880000Y-104140000D03*
X180340000Y-106680000D03*
X182880000Y-106680000D03*
%TD*%
D11*
%TO.C,CN7*%
X119380000Y-60960000D03*
D12*
X121920000Y-60960000D03*
X119380000Y-63500000D03*
X121920000Y-63500000D03*
X119380000Y-66040000D03*
X121920000Y-66040000D03*
X119380000Y-68580000D03*
X121920000Y-68580000D03*
X119380000Y-71120000D03*
X121920000Y-71120000D03*
X119380000Y-73660000D03*
X121920000Y-73660000D03*
X119380000Y-76200000D03*
X121920000Y-76200000D03*
X119380000Y-78740000D03*
X121920000Y-78740000D03*
X119380000Y-81280000D03*
X121920000Y-81280000D03*
X119380000Y-83820000D03*
X121920000Y-83820000D03*
X119380000Y-86360000D03*
X121920000Y-86360000D03*
X119380000Y-88900000D03*
X121920000Y-88900000D03*
X119380000Y-91440000D03*
X121920000Y-91440000D03*
X119380000Y-93980000D03*
X121920000Y-93980000D03*
X119380000Y-96520000D03*
X121920000Y-96520000D03*
X119380000Y-99060000D03*
X121920000Y-99060000D03*
X119380000Y-101600000D03*
X121920000Y-101600000D03*
X119380000Y-104140000D03*
X121920000Y-104140000D03*
X119380000Y-106680000D03*
X121920000Y-106680000D03*
%TD*%
M02*
