%TF.GenerationSoftware,KiCad,Pcbnew,6.0.2+dfsg-1*%
%TF.CreationDate,2022-12-11T21:53:29+09:00*%
%TF.ProjectId,Akashi-11,416b6173-6869-42d3-9131-2e6b69636164,rev?*%
%TF.SameCoordinates,Original*%
%TF.FileFunction,Soldermask,Top*%
%TF.FilePolarity,Negative*%
%FSLAX46Y46*%
G04 Gerber Fmt 4.6, Leading zero omitted, Abs format (unit mm)*
G04 Created by KiCad (PCBNEW 6.0.2+dfsg-1) date 2022-12-11 21:53:29*
%MOMM*%
%LPD*%
G01*
G04 APERTURE LIST*
G04 Aperture macros list*
%AMRoundRect*
0 Rectangle with rounded corners*
0 $1 Rounding radius*
0 $2 $3 $4 $5 $6 $7 $8 $9 X,Y pos of 4 corners*
0 Add a 4 corners polygon primitive as box body*
4,1,4,$2,$3,$4,$5,$6,$7,$8,$9,$2,$3,0*
0 Add four circle primitives for the rounded corners*
1,1,$1+$1,$2,$3*
1,1,$1+$1,$4,$5*
1,1,$1+$1,$6,$7*
1,1,$1+$1,$8,$9*
0 Add four rect primitives between the rounded corners*
20,1,$1+$1,$2,$3,$4,$5,0*
20,1,$1+$1,$4,$5,$6,$7,0*
20,1,$1+$1,$6,$7,$8,$9,0*
20,1,$1+$1,$8,$9,$2,$3,0*%
%AMFreePoly0*
4,1,22,0.500000,-0.750000,0.000000,-0.750000,0.000000,-0.745033,-0.079941,-0.743568,-0.215256,-0.701293,-0.333266,-0.622738,-0.424486,-0.514219,-0.481581,-0.384460,-0.499164,-0.250000,-0.500000,-0.250000,-0.500000,0.250000,-0.499164,0.250000,-0.499963,0.256109,-0.478152,0.396186,-0.417904,0.524511,-0.324060,0.630769,-0.204165,0.706417,-0.067858,0.745374,0.000000,0.744959,0.000000,0.750000,
0.500000,0.750000,0.500000,-0.750000,0.500000,-0.750000,$1*%
%AMFreePoly1*
4,1,20,0.000000,0.744959,0.073905,0.744508,0.209726,0.703889,0.328688,0.626782,0.421226,0.519385,0.479903,0.390333,0.500000,0.250000,0.500000,-0.250000,0.499851,-0.262216,0.476331,-0.402017,0.414519,-0.529596,0.319384,-0.634700,0.198574,-0.708877,0.061801,-0.746166,0.000000,-0.745033,0.000000,-0.750000,-0.500000,-0.750000,-0.500000,0.750000,0.000000,0.750000,0.000000,0.744959,
0.000000,0.744959,$1*%
G04 Aperture macros list end*
%ADD10RoundRect,0.237500X0.300000X0.237500X-0.300000X0.237500X-0.300000X-0.237500X0.300000X-0.237500X0*%
%ADD11RoundRect,0.237500X-0.237500X0.300000X-0.237500X-0.300000X0.237500X-0.300000X0.237500X0.300000X0*%
%ADD12C,2.000000*%
%ADD13RoundRect,0.237500X-0.300000X-0.237500X0.300000X-0.237500X0.300000X0.237500X-0.300000X0.237500X0*%
%ADD14RoundRect,0.150000X-0.512500X-0.150000X0.512500X-0.150000X0.512500X0.150000X-0.512500X0.150000X0*%
%ADD15R,2.698300X4.089400*%
%ADD16R,2.898300X4.089400*%
%ADD17RoundRect,0.250000X-0.550000X1.500000X-0.550000X-1.500000X0.550000X-1.500000X0.550000X1.500000X0*%
%ADD18FreePoly0,180.000000*%
%ADD19FreePoly1,180.000000*%
%ADD20R,1.700000X1.700000*%
%ADD21O,1.700000X1.700000*%
%ADD22RoundRect,0.237500X0.237500X-0.300000X0.237500X0.300000X-0.237500X0.300000X-0.237500X-0.300000X0*%
%ADD23R,1.800000X1.800000*%
%ADD24C,1.800000*%
%ADD25R,1.422400X0.279400*%
%ADD26RoundRect,0.250000X-1.050000X-0.550000X1.050000X-0.550000X1.050000X0.550000X-1.050000X0.550000X0*%
%ADD27FreePoly0,90.000000*%
%ADD28FreePoly1,90.000000*%
%ADD29R,1.422400X1.422400*%
%ADD30C,1.422400*%
%ADD31C,1.700000*%
%ADD32FreePoly0,270.000000*%
%ADD33FreePoly1,270.000000*%
G04 APERTURE END LIST*
D10*
%TO.C,C5*%
X140970000Y-69850000D03*
X139245000Y-69850000D03*
%TD*%
D11*
%TO.C,R1*%
X130810000Y-47397500D03*
X130810000Y-49122500D03*
%TD*%
D10*
%TO.C,R3*%
X146912500Y-50800000D03*
X145187500Y-50800000D03*
%TD*%
D12*
%TO.C,TP10*%
X158750000Y-99060000D03*
%TD*%
D13*
%TO.C,C7*%
X152807500Y-39370000D03*
X154532500Y-39370000D03*
%TD*%
D10*
%TO.C,R4*%
X161290000Y-102610000D03*
X159565000Y-102610000D03*
%TD*%
D12*
%TO.C,TP2*%
X130810000Y-105410000D03*
%TD*%
D14*
%TO.C,U4*%
X146050000Y-45720000D03*
X146050000Y-46670000D03*
X146050000Y-47620000D03*
X148325000Y-47620000D03*
X148325000Y-46670000D03*
X148325000Y-45720000D03*
%TD*%
D12*
%TO.C,TP9*%
X127000000Y-63500000D03*
%TD*%
D14*
%TO.C,U3*%
X174122500Y-47310000D03*
X174122500Y-48260000D03*
X174122500Y-49210000D03*
X176397500Y-49210000D03*
X176397500Y-47310000D03*
%TD*%
D15*
%TO.C,L2*%
X149570850Y-40640000D03*
D16*
X144969150Y-40640000D03*
%TD*%
D12*
%TO.C,TP13*%
X146050000Y-100330000D03*
%TD*%
%TO.C,TP12*%
X157480000Y-106680000D03*
%TD*%
%TO.C,TP7*%
X151765000Y-55880000D03*
%TD*%
D13*
%TO.C,C2*%
X136297500Y-99060000D03*
X138022500Y-99060000D03*
%TD*%
D17*
%TO.C,C6*%
X181610000Y-50704900D03*
X181610000Y-56104900D03*
%TD*%
D18*
%TO.C,JP1*%
X176545000Y-51435000D03*
D19*
X175245000Y-51435000D03*
%TD*%
D20*
%TO.C,J1*%
X171455000Y-106675000D03*
D21*
X168915000Y-106675000D03*
X171455000Y-104135000D03*
X168915000Y-104135000D03*
X171455000Y-101595000D03*
X168915000Y-101595000D03*
X171455000Y-99055000D03*
X168915000Y-99055000D03*
X171455000Y-96515000D03*
X168915000Y-96515000D03*
X171455000Y-93975000D03*
X168915000Y-93975000D03*
X171455000Y-91435000D03*
X168915000Y-91435000D03*
X171455000Y-88895000D03*
X168915000Y-88895000D03*
X171455000Y-86355000D03*
X168915000Y-86355000D03*
X171455000Y-83815000D03*
X168915000Y-83815000D03*
X171455000Y-81275000D03*
X168915000Y-81275000D03*
X171455000Y-78735000D03*
X168915000Y-78735000D03*
X171455000Y-76195000D03*
X168915000Y-76195000D03*
X171455000Y-73655000D03*
X168915000Y-73655000D03*
X171455000Y-71115000D03*
X168915000Y-71115000D03*
X171455000Y-68575000D03*
X168915000Y-68575000D03*
X171455000Y-66035000D03*
X168915000Y-66035000D03*
X171455000Y-63495000D03*
X168915000Y-63495000D03*
X171455000Y-60955000D03*
X168915000Y-60955000D03*
X171455000Y-58415000D03*
X168915000Y-58415000D03*
%TD*%
D11*
%TO.C,R5*%
X140970000Y-101145000D03*
X140970000Y-102870000D03*
%TD*%
%TO.C,C4*%
X138430000Y-101145000D03*
X138430000Y-102870000D03*
%TD*%
D22*
%TO.C,C1*%
X170180000Y-40232500D03*
X170180000Y-38507500D03*
%TD*%
D13*
%TO.C,D2*%
X136297500Y-105410000D03*
X138022500Y-105410000D03*
%TD*%
D10*
%TO.C,R2*%
X151992500Y-50800000D03*
X150267500Y-50800000D03*
%TD*%
D23*
%TO.C,D3*%
X130810000Y-43180000D03*
D24*
X130810000Y-40640000D03*
%TD*%
D13*
%TO.C,C8*%
X146457500Y-69850000D03*
X148182500Y-69850000D03*
%TD*%
%TO.C,R6*%
X152807500Y-106680000D03*
X154532500Y-106680000D03*
%TD*%
D25*
%TO.C,U2*%
X154571700Y-103870001D03*
X154571700Y-103369999D03*
X154571700Y-102870000D03*
X154571700Y-102370001D03*
X154571700Y-101869999D03*
X150228300Y-101869999D03*
X150228300Y-102370001D03*
X150228300Y-102870000D03*
X150228300Y-103369999D03*
X150228300Y-103870001D03*
%TD*%
D12*
%TO.C,TP4*%
X135890000Y-57150000D03*
%TD*%
%TO.C,TP5*%
X176530000Y-104140000D03*
%TD*%
D20*
%TO.C,JP3*%
X165735000Y-48260000D03*
D21*
X165735000Y-45720000D03*
%TD*%
D26*
%TO.C,C9*%
X151870000Y-46990000D03*
X155470000Y-46990000D03*
%TD*%
D22*
%TO.C,D1*%
X135890000Y-102870000D03*
X135890000Y-101145000D03*
%TD*%
D12*
%TO.C,TP3*%
X182880000Y-45720000D03*
%TD*%
D15*
%TO.C,L1*%
X173567950Y-40640000D03*
D16*
X178169650Y-40640000D03*
%TD*%
D10*
%TO.C,C3*%
X132942500Y-99060000D03*
X131217500Y-99060000D03*
%TD*%
D12*
%TO.C,TP6*%
X176530000Y-72390000D03*
%TD*%
D27*
%TO.C,JP4*%
X170180000Y-47625000D03*
D28*
X170180000Y-46325000D03*
%TD*%
D29*
%TO.C,U1*%
X146050000Y-77470000D03*
D30*
X143510000Y-74930000D03*
X143510000Y-77470000D03*
X140970000Y-74930000D03*
X140970000Y-77470000D03*
X138430000Y-74930000D03*
X135890000Y-77470000D03*
X138430000Y-77470000D03*
X135890000Y-80010000D03*
X138430000Y-80010000D03*
X135890000Y-82550000D03*
X138430000Y-82550000D03*
X135890000Y-85090000D03*
X138430000Y-85090000D03*
X135890000Y-87630000D03*
X138430000Y-87630000D03*
X135890000Y-90170000D03*
X138430000Y-92710000D03*
X138430000Y-90170000D03*
X140970000Y-92710000D03*
X140970000Y-90170000D03*
X143510000Y-92710000D03*
X143510000Y-90170000D03*
X146050000Y-92710000D03*
X146050000Y-90170000D03*
X148590000Y-92710000D03*
X148590000Y-90170000D03*
X151130000Y-92710000D03*
X153670000Y-90170000D03*
X151130000Y-90170000D03*
X153670000Y-87630000D03*
X151130000Y-87630000D03*
X153670000Y-85090000D03*
X151130000Y-85090000D03*
X153670000Y-82550000D03*
X151130000Y-82550000D03*
X153670000Y-80010000D03*
X151130000Y-80010000D03*
X153670000Y-77470000D03*
X151130000Y-74930000D03*
X151130000Y-77470000D03*
X148590000Y-74930000D03*
X148590000Y-77470000D03*
X146050000Y-74930000D03*
%TD*%
D12*
%TO.C,TP11*%
X163830000Y-105410000D03*
%TD*%
%TO.C,TP8*%
X127000000Y-69850000D03*
%TD*%
D31*
%TO.C,SW1*%
X118670000Y-40930000D03*
X125170000Y-40930000D03*
X118670000Y-45430000D03*
X125170000Y-45430000D03*
%TD*%
D12*
%TO.C,TP1*%
X142240000Y-106680000D03*
%TD*%
D32*
%TO.C,JP2*%
X144780000Y-64755000D03*
D33*
X144780000Y-66055011D03*
%TD*%
D20*
%TO.C,CN10*%
X180340000Y-60960000D03*
D21*
X182880000Y-60960000D03*
X180340000Y-63500000D03*
X182880000Y-63500000D03*
X180340000Y-66040000D03*
X182880000Y-66040000D03*
X180340000Y-68580000D03*
X182880000Y-68580000D03*
X180340000Y-71120000D03*
X182880000Y-71120000D03*
X180340000Y-73660000D03*
X182880000Y-73660000D03*
X180340000Y-76200000D03*
X182880000Y-76200000D03*
X180340000Y-78740000D03*
X182880000Y-78740000D03*
X180340000Y-81280000D03*
X182880000Y-81280000D03*
X180340000Y-83820000D03*
X182880000Y-83820000D03*
X180340000Y-86360000D03*
X182880000Y-86360000D03*
X180340000Y-88900000D03*
X182880000Y-88900000D03*
X180340000Y-91440000D03*
X182880000Y-91440000D03*
X180340000Y-93980000D03*
X182880000Y-93980000D03*
X180340000Y-96520000D03*
X182880000Y-96520000D03*
X180340000Y-99060000D03*
X182880000Y-99060000D03*
X180340000Y-101600000D03*
X182880000Y-101600000D03*
X180340000Y-104140000D03*
X182880000Y-104140000D03*
X180340000Y-106680000D03*
X182880000Y-106680000D03*
%TD*%
D20*
%TO.C,CN7*%
X119380000Y-60960000D03*
D21*
X121920000Y-60960000D03*
X119380000Y-63500000D03*
X121920000Y-63500000D03*
X119380000Y-66040000D03*
X121920000Y-66040000D03*
X119380000Y-68580000D03*
X121920000Y-68580000D03*
X119380000Y-71120000D03*
X121920000Y-71120000D03*
X119380000Y-73660000D03*
X121920000Y-73660000D03*
X119380000Y-76200000D03*
X121920000Y-76200000D03*
X119380000Y-78740000D03*
X121920000Y-78740000D03*
X119380000Y-81280000D03*
X121920000Y-81280000D03*
X119380000Y-83820000D03*
X121920000Y-83820000D03*
X119380000Y-86360000D03*
X121920000Y-86360000D03*
X119380000Y-88900000D03*
X121920000Y-88900000D03*
X119380000Y-91440000D03*
X121920000Y-91440000D03*
X119380000Y-93980000D03*
X121920000Y-93980000D03*
X119380000Y-96520000D03*
X121920000Y-96520000D03*
X119380000Y-99060000D03*
X121920000Y-99060000D03*
X119380000Y-101600000D03*
X121920000Y-101600000D03*
X119380000Y-104140000D03*
X121920000Y-104140000D03*
X119380000Y-106680000D03*
X121920000Y-106680000D03*
%TD*%
M02*
