%TF.GenerationSoftware,KiCad,Pcbnew,6.0.2+dfsg-1*%
%TF.CreationDate,2023-01-11T22:24:01+09:00*%
%TF.ProjectId,Akashi-11,416b6173-6869-42d3-9131-2e6b69636164,rev?*%
%TF.SameCoordinates,Original*%
%TF.FileFunction,Legend,Bot*%
%TF.FilePolarity,Positive*%
%FSLAX46Y46*%
G04 Gerber Fmt 4.6, Leading zero omitted, Abs format (unit mm)*
G04 Created by KiCad (PCBNEW 6.0.2+dfsg-1) date 2023-01-11 22:24:01*
%MOMM*%
%LPD*%
G01*
G04 APERTURE LIST*
%ADD10C,0.150000*%
%ADD11C,0.120000*%
G04 APERTURE END LIST*
D10*
X161116666Y-51722976D02*
X161116666Y-52199166D01*
X161402380Y-51627738D02*
X160402380Y-51961071D01*
X161402380Y-52294404D01*
X161402380Y-52627738D02*
X160402380Y-52627738D01*
X161021428Y-52722976D02*
X161402380Y-53008690D01*
X160735714Y-53008690D02*
X161116666Y-52627738D01*
X161402380Y-53865833D02*
X160878571Y-53865833D01*
X160783333Y-53818214D01*
X160735714Y-53722976D01*
X160735714Y-53532500D01*
X160783333Y-53437261D01*
X161354761Y-53865833D02*
X161402380Y-53770595D01*
X161402380Y-53532500D01*
X161354761Y-53437261D01*
X161259523Y-53389642D01*
X161164285Y-53389642D01*
X161069047Y-53437261D01*
X161021428Y-53532500D01*
X161021428Y-53770595D01*
X160973809Y-53865833D01*
X161354761Y-54294404D02*
X161402380Y-54389642D01*
X161402380Y-54580119D01*
X161354761Y-54675357D01*
X161259523Y-54722976D01*
X161211904Y-54722976D01*
X161116666Y-54675357D01*
X161069047Y-54580119D01*
X161069047Y-54437261D01*
X161021428Y-54342023D01*
X160926190Y-54294404D01*
X160878571Y-54294404D01*
X160783333Y-54342023D01*
X160735714Y-54437261D01*
X160735714Y-54580119D01*
X160783333Y-54675357D01*
X161402380Y-55151547D02*
X160402380Y-55151547D01*
X161402380Y-55580119D02*
X160878571Y-55580119D01*
X160783333Y-55532500D01*
X160735714Y-55437261D01*
X160735714Y-55294404D01*
X160783333Y-55199166D01*
X160830952Y-55151547D01*
X161402380Y-56056309D02*
X160735714Y-56056309D01*
X160402380Y-56056309D02*
X160450000Y-56008690D01*
X160497619Y-56056309D01*
X160450000Y-56103928D01*
X160402380Y-56056309D01*
X160497619Y-56056309D01*
X161021428Y-56532500D02*
X161021428Y-57294404D01*
X161402380Y-58294404D02*
X161402380Y-57722976D01*
X161402380Y-58008690D02*
X160402380Y-58008690D01*
X160545238Y-57913452D01*
X160640476Y-57818214D01*
X160688095Y-57722976D01*
X161402380Y-59246785D02*
X161402380Y-58675357D01*
X161402380Y-58961071D02*
X160402380Y-58961071D01*
X160545238Y-58865833D01*
X160640476Y-58770595D01*
X160688095Y-58675357D01*
X160735714Y-60342023D02*
X161402380Y-60580119D01*
X160735714Y-60818214D01*
X161402380Y-61722976D02*
X161402380Y-61151547D01*
X161402380Y-61437261D02*
X160402380Y-61437261D01*
X160545238Y-61342023D01*
X160640476Y-61246785D01*
X160688095Y-61151547D01*
X161307142Y-62151547D02*
X161354761Y-62199166D01*
X161402380Y-62151547D01*
X161354761Y-62103928D01*
X161307142Y-62151547D01*
X161402380Y-62151547D01*
X160402380Y-62818214D02*
X160402380Y-62913452D01*
X160450000Y-63008690D01*
X160497619Y-63056309D01*
X160592857Y-63103928D01*
X160783333Y-63151547D01*
X161021428Y-63151547D01*
X161211904Y-63103928D01*
X161307142Y-63056309D01*
X161354761Y-63008690D01*
X161402380Y-62913452D01*
X161402380Y-62818214D01*
X161354761Y-62722976D01*
X161307142Y-62675357D01*
X161211904Y-62627738D01*
X161021428Y-62580119D01*
X160783333Y-62580119D01*
X160592857Y-62627738D01*
X160497619Y-62675357D01*
X160450000Y-62722976D01*
X160402380Y-62818214D01*
X161307142Y-63580119D02*
X161354761Y-63627738D01*
X161402380Y-63580119D01*
X161354761Y-63532500D01*
X161307142Y-63580119D01*
X161402380Y-63580119D01*
X161402380Y-64580119D02*
X161402380Y-64008690D01*
X161402380Y-64294404D02*
X160402380Y-64294404D01*
X160545238Y-64199166D01*
X160640476Y-64103928D01*
X160688095Y-64008690D01*
X163012380Y-51770595D02*
X162012380Y-51770595D01*
X163012380Y-52199166D02*
X162488571Y-52199166D01*
X162393333Y-52151547D01*
X162345714Y-52056309D01*
X162345714Y-51913452D01*
X162393333Y-51818214D01*
X162440952Y-51770595D01*
X162345714Y-52532500D02*
X162345714Y-52913452D01*
X162012380Y-52675357D02*
X162869523Y-52675357D01*
X162964761Y-52722976D01*
X163012380Y-52818214D01*
X163012380Y-52913452D01*
X162345714Y-53103928D02*
X162345714Y-53484880D01*
X162012380Y-53246785D02*
X162869523Y-53246785D01*
X162964761Y-53294404D01*
X163012380Y-53389642D01*
X163012380Y-53484880D01*
X162345714Y-53818214D02*
X163345714Y-53818214D01*
X162393333Y-53818214D02*
X162345714Y-53913452D01*
X162345714Y-54103928D01*
X162393333Y-54199166D01*
X162440952Y-54246785D01*
X162536190Y-54294404D01*
X162821904Y-54294404D01*
X162917142Y-54246785D01*
X162964761Y-54199166D01*
X163012380Y-54103928D01*
X163012380Y-53913452D01*
X162964761Y-53818214D01*
X162964761Y-54675357D02*
X163012380Y-54770595D01*
X163012380Y-54961071D01*
X162964761Y-55056309D01*
X162869523Y-55103928D01*
X162821904Y-55103928D01*
X162726666Y-55056309D01*
X162679047Y-54961071D01*
X162679047Y-54818214D01*
X162631428Y-54722976D01*
X162536190Y-54675357D01*
X162488571Y-54675357D01*
X162393333Y-54722976D01*
X162345714Y-54818214D01*
X162345714Y-54961071D01*
X162393333Y-55056309D01*
X162917142Y-55532500D02*
X162964761Y-55580119D01*
X163012380Y-55532500D01*
X162964761Y-55484880D01*
X162917142Y-55532500D01*
X163012380Y-55532500D01*
X162393333Y-55532500D02*
X162440952Y-55580119D01*
X162488571Y-55532500D01*
X162440952Y-55484880D01*
X162393333Y-55532500D01*
X162488571Y-55532500D01*
X161964761Y-56722976D02*
X163250476Y-55865833D01*
X161964761Y-57770595D02*
X163250476Y-56913452D01*
X162345714Y-58532500D02*
X163155238Y-58532500D01*
X163250476Y-58484880D01*
X163298095Y-58437261D01*
X163345714Y-58342023D01*
X163345714Y-58199166D01*
X163298095Y-58103928D01*
X162964761Y-58532500D02*
X163012380Y-58437261D01*
X163012380Y-58246785D01*
X162964761Y-58151547D01*
X162917142Y-58103928D01*
X162821904Y-58056309D01*
X162536190Y-58056309D01*
X162440952Y-58103928D01*
X162393333Y-58151547D01*
X162345714Y-58246785D01*
X162345714Y-58437261D01*
X162393333Y-58532500D01*
X163012380Y-59008690D02*
X162345714Y-59008690D01*
X162012380Y-59008690D02*
X162060000Y-58961071D01*
X162107619Y-59008690D01*
X162060000Y-59056309D01*
X162012380Y-59008690D01*
X162107619Y-59008690D01*
X162345714Y-59342023D02*
X162345714Y-59722976D01*
X162012380Y-59484880D02*
X162869523Y-59484880D01*
X162964761Y-59532500D01*
X163012380Y-59627738D01*
X163012380Y-59722976D01*
X163012380Y-60056309D02*
X162012380Y-60056309D01*
X163012380Y-60484880D02*
X162488571Y-60484880D01*
X162393333Y-60437261D01*
X162345714Y-60342023D01*
X162345714Y-60199166D01*
X162393333Y-60103928D01*
X162440952Y-60056309D01*
X162345714Y-61389642D02*
X163012380Y-61389642D01*
X162345714Y-60961071D02*
X162869523Y-60961071D01*
X162964761Y-61008690D01*
X163012380Y-61103928D01*
X163012380Y-61246785D01*
X162964761Y-61342023D01*
X162917142Y-61389642D01*
X163012380Y-61865833D02*
X162012380Y-61865833D01*
X162393333Y-61865833D02*
X162345714Y-61961071D01*
X162345714Y-62151547D01*
X162393333Y-62246785D01*
X162440952Y-62294404D01*
X162536190Y-62342023D01*
X162821904Y-62342023D01*
X162917142Y-62294404D01*
X162964761Y-62246785D01*
X163012380Y-62151547D01*
X163012380Y-61961071D01*
X162964761Y-61865833D01*
X162917142Y-62770595D02*
X162964761Y-62818214D01*
X163012380Y-62770595D01*
X162964761Y-62722976D01*
X162917142Y-62770595D01*
X163012380Y-62770595D01*
X162964761Y-63675357D02*
X163012380Y-63580119D01*
X163012380Y-63389642D01*
X162964761Y-63294404D01*
X162917142Y-63246785D01*
X162821904Y-63199166D01*
X162536190Y-63199166D01*
X162440952Y-63246785D01*
X162393333Y-63294404D01*
X162345714Y-63389642D01*
X162345714Y-63580119D01*
X162393333Y-63675357D01*
X163012380Y-64246785D02*
X162964761Y-64151547D01*
X162917142Y-64103928D01*
X162821904Y-64056309D01*
X162536190Y-64056309D01*
X162440952Y-64103928D01*
X162393333Y-64151547D01*
X162345714Y-64246785D01*
X162345714Y-64389642D01*
X162393333Y-64484880D01*
X162440952Y-64532500D01*
X162536190Y-64580119D01*
X162821904Y-64580119D01*
X162917142Y-64532500D01*
X162964761Y-64484880D01*
X163012380Y-64389642D01*
X163012380Y-64246785D01*
X163012380Y-65008690D02*
X162345714Y-65008690D01*
X162440952Y-65008690D02*
X162393333Y-65056309D01*
X162345714Y-65151547D01*
X162345714Y-65294404D01*
X162393333Y-65389642D01*
X162488571Y-65437261D01*
X163012380Y-65437261D01*
X162488571Y-65437261D02*
X162393333Y-65484880D01*
X162345714Y-65580119D01*
X162345714Y-65722976D01*
X162393333Y-65818214D01*
X162488571Y-65865833D01*
X163012380Y-65865833D01*
X161964761Y-67056309D02*
X163250476Y-66199166D01*
X162964761Y-67342023D02*
X163012380Y-67437261D01*
X163012380Y-67627738D01*
X162964761Y-67722976D01*
X162869523Y-67770595D01*
X162821904Y-67770595D01*
X162726666Y-67722976D01*
X162679047Y-67627738D01*
X162679047Y-67484880D01*
X162631428Y-67389642D01*
X162536190Y-67342023D01*
X162488571Y-67342023D01*
X162393333Y-67389642D01*
X162345714Y-67484880D01*
X162345714Y-67627738D01*
X162393333Y-67722976D01*
X162345714Y-68627738D02*
X163012380Y-68627738D01*
X162345714Y-68199166D02*
X162869523Y-68199166D01*
X162964761Y-68246785D01*
X163012380Y-68342023D01*
X163012380Y-68484880D01*
X162964761Y-68580119D01*
X162917142Y-68627738D01*
X163012380Y-69103928D02*
X162345714Y-69103928D01*
X162012380Y-69103928D02*
X162060000Y-69056309D01*
X162107619Y-69103928D01*
X162060000Y-69151547D01*
X162012380Y-69103928D01*
X162107619Y-69103928D01*
X163012380Y-69580119D02*
X162012380Y-69580119D01*
X162631428Y-69675357D02*
X163012380Y-69961071D01*
X162345714Y-69961071D02*
X162726666Y-69580119D01*
X163012380Y-70818214D02*
X162488571Y-70818214D01*
X162393333Y-70770595D01*
X162345714Y-70675357D01*
X162345714Y-70484880D01*
X162393333Y-70389642D01*
X162964761Y-70818214D02*
X163012380Y-70722976D01*
X163012380Y-70484880D01*
X162964761Y-70389642D01*
X162869523Y-70342023D01*
X162774285Y-70342023D01*
X162679047Y-70389642D01*
X162631428Y-70484880D01*
X162631428Y-70722976D01*
X162583809Y-70818214D01*
X162345714Y-71294404D02*
X163012380Y-71294404D01*
X162440952Y-71294404D02*
X162393333Y-71342023D01*
X162345714Y-71437261D01*
X162345714Y-71580119D01*
X162393333Y-71675357D01*
X162488571Y-71722976D01*
X163012380Y-71722976D01*
X162345714Y-72627738D02*
X163012380Y-72627738D01*
X161964761Y-72389642D02*
X162679047Y-72151547D01*
X162679047Y-72770595D01*
X162345714Y-73580119D02*
X163155238Y-73580119D01*
X163250476Y-73532500D01*
X163298095Y-73484880D01*
X163345714Y-73389642D01*
X163345714Y-73246785D01*
X163298095Y-73151547D01*
X162964761Y-73580119D02*
X163012380Y-73484880D01*
X163012380Y-73294404D01*
X162964761Y-73199166D01*
X162917142Y-73151547D01*
X162821904Y-73103928D01*
X162536190Y-73103928D01*
X162440952Y-73151547D01*
X162393333Y-73199166D01*
X162345714Y-73294404D01*
X162345714Y-73484880D01*
X162393333Y-73580119D01*
X163012380Y-74056309D02*
X162345714Y-74056309D01*
X162012380Y-74056309D02*
X162060000Y-74008690D01*
X162107619Y-74056309D01*
X162060000Y-74103928D01*
X162012380Y-74056309D01*
X162107619Y-74056309D01*
X162345714Y-74389642D02*
X162345714Y-74770595D01*
X162012380Y-74532500D02*
X162869523Y-74532500D01*
X162964761Y-74580119D01*
X163012380Y-74675357D01*
X163012380Y-74770595D01*
X163012380Y-75103928D02*
X162012380Y-75103928D01*
X163012380Y-75532500D02*
X162488571Y-75532500D01*
X162393333Y-75484880D01*
X162345714Y-75389642D01*
X162345714Y-75246785D01*
X162393333Y-75151547D01*
X162440952Y-75103928D01*
X162345714Y-76437261D02*
X163012380Y-76437261D01*
X162345714Y-76008690D02*
X162869523Y-76008690D01*
X162964761Y-76056309D01*
X163012380Y-76151547D01*
X163012380Y-76294404D01*
X162964761Y-76389642D01*
X162917142Y-76437261D01*
X163012380Y-76913452D02*
X162012380Y-76913452D01*
X162393333Y-76913452D02*
X162345714Y-77008690D01*
X162345714Y-77199166D01*
X162393333Y-77294404D01*
X162440952Y-77342023D01*
X162536190Y-77389642D01*
X162821904Y-77389642D01*
X162917142Y-77342023D01*
X162964761Y-77294404D01*
X163012380Y-77199166D01*
X163012380Y-77008690D01*
X162964761Y-76913452D01*
X161964761Y-78532500D02*
X163250476Y-77675357D01*
X162726666Y-78818214D02*
X162726666Y-79294404D01*
X163012380Y-78722976D02*
X162012380Y-79056309D01*
X163012380Y-79389642D01*
X163012380Y-79722976D02*
X162012380Y-79722976D01*
X162631428Y-79818214D02*
X163012380Y-80103928D01*
X162345714Y-80103928D02*
X162726666Y-79722976D01*
X163012380Y-80961071D02*
X162488571Y-80961071D01*
X162393333Y-80913452D01*
X162345714Y-80818214D01*
X162345714Y-80627738D01*
X162393333Y-80532499D01*
X162964761Y-80961071D02*
X163012380Y-80865833D01*
X163012380Y-80627738D01*
X162964761Y-80532499D01*
X162869523Y-80484880D01*
X162774285Y-80484880D01*
X162679047Y-80532499D01*
X162631428Y-80627738D01*
X162631428Y-80865833D01*
X162583809Y-80961071D01*
X162964761Y-81389642D02*
X163012380Y-81484880D01*
X163012380Y-81675357D01*
X162964761Y-81770595D01*
X162869523Y-81818214D01*
X162821904Y-81818214D01*
X162726666Y-81770595D01*
X162679047Y-81675357D01*
X162679047Y-81532499D01*
X162631428Y-81437261D01*
X162536190Y-81389642D01*
X162488571Y-81389642D01*
X162393333Y-81437261D01*
X162345714Y-81532499D01*
X162345714Y-81675357D01*
X162393333Y-81770595D01*
X163012380Y-82246785D02*
X162012380Y-82246785D01*
X163012380Y-82675357D02*
X162488571Y-82675357D01*
X162393333Y-82627738D01*
X162345714Y-82532499D01*
X162345714Y-82389642D01*
X162393333Y-82294404D01*
X162440952Y-82246785D01*
X163012380Y-83151547D02*
X162345714Y-83151547D01*
X162012380Y-83151547D02*
X162060000Y-83103928D01*
X162107619Y-83151547D01*
X162060000Y-83199166D01*
X162012380Y-83151547D01*
X162107619Y-83151547D01*
X162631428Y-83627738D02*
X162631428Y-84389642D01*
X163012380Y-85389642D02*
X163012380Y-84818214D01*
X163012380Y-85103928D02*
X162012380Y-85103928D01*
X162155238Y-85008690D01*
X162250476Y-84913452D01*
X162298095Y-84818214D01*
X163012380Y-86342023D02*
X163012380Y-85770595D01*
X163012380Y-86056309D02*
X162012380Y-86056309D01*
X162155238Y-85961071D01*
X162250476Y-85865833D01*
X162298095Y-85770595D01*
X165003333Y-52056309D02*
X164955714Y-52008690D01*
X164812857Y-51913452D01*
X164717619Y-51865833D01*
X164574761Y-51818214D01*
X164336666Y-51770595D01*
X164146190Y-51770595D01*
X163908095Y-51818214D01*
X163765238Y-51865833D01*
X163670000Y-51913452D01*
X163527142Y-52008690D01*
X163479523Y-52056309D01*
X164527142Y-53008690D02*
X164574761Y-52961071D01*
X164622380Y-52818214D01*
X164622380Y-52722976D01*
X164574761Y-52580119D01*
X164479523Y-52484880D01*
X164384285Y-52437261D01*
X164193809Y-52389642D01*
X164050952Y-52389642D01*
X163860476Y-52437261D01*
X163765238Y-52484880D01*
X163670000Y-52580119D01*
X163622380Y-52722976D01*
X163622380Y-52818214D01*
X163670000Y-52961071D01*
X163717619Y-53008690D01*
X165003333Y-53342023D02*
X164955714Y-53389642D01*
X164812857Y-53484880D01*
X164717619Y-53532500D01*
X164574761Y-53580119D01*
X164336666Y-53627738D01*
X164146190Y-53627738D01*
X163908095Y-53580119D01*
X163765238Y-53532500D01*
X163670000Y-53484880D01*
X163527142Y-53389642D01*
X163479523Y-53342023D01*
X164574761Y-54818214D02*
X164622380Y-54961071D01*
X164622380Y-55199166D01*
X164574761Y-55294404D01*
X164527142Y-55342023D01*
X164431904Y-55389642D01*
X164336666Y-55389642D01*
X164241428Y-55342023D01*
X164193809Y-55294404D01*
X164146190Y-55199166D01*
X164098571Y-55008690D01*
X164050952Y-54913452D01*
X164003333Y-54865833D01*
X163908095Y-54818214D01*
X163812857Y-54818214D01*
X163717619Y-54865833D01*
X163670000Y-54913452D01*
X163622380Y-55008690D01*
X163622380Y-55246785D01*
X163670000Y-55389642D01*
X164574761Y-56199166D02*
X164622380Y-56103928D01*
X164622380Y-55913452D01*
X164574761Y-55818214D01*
X164479523Y-55770595D01*
X164098571Y-55770595D01*
X164003333Y-55818214D01*
X163955714Y-55913452D01*
X163955714Y-56103928D01*
X164003333Y-56199166D01*
X164098571Y-56246785D01*
X164193809Y-56246785D01*
X164289047Y-55770595D01*
X164622380Y-56675357D02*
X163955714Y-56675357D01*
X163622380Y-56675357D02*
X163670000Y-56627738D01*
X163717619Y-56675357D01*
X163670000Y-56722976D01*
X163622380Y-56675357D01*
X163717619Y-56675357D01*
X164622380Y-57151547D02*
X163955714Y-57151547D01*
X163622380Y-57151547D02*
X163670000Y-57103928D01*
X163717619Y-57151547D01*
X163670000Y-57199166D01*
X163622380Y-57151547D01*
X163717619Y-57151547D01*
X164574761Y-58056309D02*
X164622380Y-57961071D01*
X164622380Y-57770595D01*
X164574761Y-57675357D01*
X164527142Y-57627738D01*
X164431904Y-57580119D01*
X164146190Y-57580119D01*
X164050952Y-57627738D01*
X164003333Y-57675357D01*
X163955714Y-57770595D01*
X163955714Y-57961071D01*
X164003333Y-58056309D01*
X164622380Y-58484880D02*
X163622380Y-58484880D01*
X164622380Y-58913452D02*
X164098571Y-58913452D01*
X164003333Y-58865833D01*
X163955714Y-58770595D01*
X163955714Y-58627738D01*
X164003333Y-58532500D01*
X164050952Y-58484880D01*
X164622380Y-59389642D02*
X163955714Y-59389642D01*
X163622380Y-59389642D02*
X163670000Y-59342023D01*
X163717619Y-59389642D01*
X163670000Y-59437261D01*
X163622380Y-59389642D01*
X163717619Y-59389642D01*
X164622380Y-60627738D02*
X163622380Y-60627738D01*
X164098571Y-60627738D02*
X164098571Y-61199166D01*
X164622380Y-61199166D02*
X163622380Y-61199166D01*
X164622380Y-61818214D02*
X164574761Y-61722976D01*
X164527142Y-61675357D01*
X164431904Y-61627738D01*
X164146190Y-61627738D01*
X164050952Y-61675357D01*
X164003333Y-61722976D01*
X163955714Y-61818214D01*
X163955714Y-61961071D01*
X164003333Y-62056309D01*
X164050952Y-62103928D01*
X164146190Y-62151547D01*
X164431904Y-62151547D01*
X164527142Y-62103928D01*
X164574761Y-62056309D01*
X164622380Y-61961071D01*
X164622380Y-61818214D01*
X164622380Y-62580119D02*
X163955714Y-62580119D01*
X164146190Y-62580119D02*
X164050952Y-62627738D01*
X164003333Y-62675357D01*
X163955714Y-62770595D01*
X163955714Y-62865833D01*
X164622380Y-63199166D02*
X163955714Y-63199166D01*
X163622380Y-63199166D02*
X163670000Y-63151547D01*
X163717619Y-63199166D01*
X163670000Y-63246785D01*
X163622380Y-63199166D01*
X163717619Y-63199166D01*
X164574761Y-64056309D02*
X164622380Y-63961071D01*
X164622380Y-63770595D01*
X164574761Y-63675357D01*
X164479523Y-63627738D01*
X164098571Y-63627738D01*
X164003333Y-63675357D01*
X163955714Y-63770595D01*
X163955714Y-63961071D01*
X164003333Y-64056309D01*
X164098571Y-64103928D01*
X164193809Y-64103928D01*
X164289047Y-63627738D01*
X163717619Y-65246785D02*
X163670000Y-65294404D01*
X163622380Y-65389642D01*
X163622380Y-65627738D01*
X163670000Y-65722976D01*
X163717619Y-65770595D01*
X163812857Y-65818214D01*
X163908095Y-65818214D01*
X164050952Y-65770595D01*
X164622380Y-65199166D01*
X164622380Y-65818214D01*
X163622380Y-66437261D02*
X163622380Y-66532500D01*
X163670000Y-66627738D01*
X163717619Y-66675357D01*
X163812857Y-66722976D01*
X164003333Y-66770595D01*
X164241428Y-66770595D01*
X164431904Y-66722976D01*
X164527142Y-66675357D01*
X164574761Y-66627738D01*
X164622380Y-66532500D01*
X164622380Y-66437261D01*
X164574761Y-66342023D01*
X164527142Y-66294404D01*
X164431904Y-66246785D01*
X164241428Y-66199166D01*
X164003333Y-66199166D01*
X163812857Y-66246785D01*
X163717619Y-66294404D01*
X163670000Y-66342023D01*
X163622380Y-66437261D01*
X163717619Y-67151547D02*
X163670000Y-67199166D01*
X163622380Y-67294404D01*
X163622380Y-67532500D01*
X163670000Y-67627738D01*
X163717619Y-67675357D01*
X163812857Y-67722976D01*
X163908095Y-67722976D01*
X164050952Y-67675357D01*
X164622380Y-67103928D01*
X164622380Y-67722976D01*
X163717619Y-68103928D02*
X163670000Y-68151547D01*
X163622380Y-68246785D01*
X163622380Y-68484880D01*
X163670000Y-68580119D01*
X163717619Y-68627738D01*
X163812857Y-68675357D01*
X163908095Y-68675357D01*
X164050952Y-68627738D01*
X164622380Y-68056309D01*
X164622380Y-68675357D01*
X164574761Y-69151547D02*
X164622380Y-69151547D01*
X164717619Y-69103928D01*
X164765238Y-69056309D01*
X163717619Y-70294404D02*
X163670000Y-70342023D01*
X163622380Y-70437261D01*
X163622380Y-70675357D01*
X163670000Y-70770595D01*
X163717619Y-70818214D01*
X163812857Y-70865833D01*
X163908095Y-70865833D01*
X164050952Y-70818214D01*
X164622380Y-70246785D01*
X164622380Y-70865833D01*
X163622380Y-71484880D02*
X163622380Y-71580119D01*
X163670000Y-71675357D01*
X163717619Y-71722976D01*
X163812857Y-71770595D01*
X164003333Y-71818214D01*
X164241428Y-71818214D01*
X164431904Y-71770595D01*
X164527142Y-71722976D01*
X164574761Y-71675357D01*
X164622380Y-71580119D01*
X164622380Y-71484880D01*
X164574761Y-71389642D01*
X164527142Y-71342023D01*
X164431904Y-71294404D01*
X164241428Y-71246785D01*
X164003333Y-71246785D01*
X163812857Y-71294404D01*
X163717619Y-71342023D01*
X163670000Y-71389642D01*
X163622380Y-71484880D01*
X163717619Y-72199166D02*
X163670000Y-72246785D01*
X163622380Y-72342023D01*
X163622380Y-72580119D01*
X163670000Y-72675357D01*
X163717619Y-72722976D01*
X163812857Y-72770595D01*
X163908095Y-72770595D01*
X164050952Y-72722976D01*
X164622380Y-72151547D01*
X164622380Y-72770595D01*
X163622380Y-73103928D02*
X163622380Y-73722976D01*
X164003333Y-73389642D01*
X164003333Y-73532500D01*
X164050952Y-73627738D01*
X164098571Y-73675357D01*
X164193809Y-73722976D01*
X164431904Y-73722976D01*
X164527142Y-73675357D01*
X164574761Y-73627738D01*
X164622380Y-73532500D01*
X164622380Y-73246785D01*
X164574761Y-73151547D01*
X164527142Y-73103928D01*
D11*
%TO.C,CN10*%
X184210000Y-59630000D02*
X181610000Y-59630000D01*
X180340000Y-59630000D02*
X179010000Y-59630000D01*
X179010000Y-59630000D02*
X179010000Y-60960000D01*
X181610000Y-62230000D02*
X179010000Y-62230000D01*
X179010000Y-62230000D02*
X179010000Y-108010000D01*
X184210000Y-108010000D02*
X179010000Y-108010000D01*
X184210000Y-59630000D02*
X184210000Y-108010000D01*
X181610000Y-59630000D02*
X181610000Y-62230000D01*
%TO.C,CN7*%
X123250000Y-108010000D02*
X118050000Y-108010000D01*
X123250000Y-59630000D02*
X120650000Y-59630000D01*
X123250000Y-59630000D02*
X123250000Y-108010000D01*
X119380000Y-59630000D02*
X118050000Y-59630000D01*
X120650000Y-62230000D02*
X118050000Y-62230000D01*
X118050000Y-62230000D02*
X118050000Y-108010000D01*
X120650000Y-59630000D02*
X120650000Y-62230000D01*
X118050000Y-59630000D02*
X118050000Y-60960000D01*
%TD*%
M02*
