%TF.GenerationSoftware,KiCad,Pcbnew,6.0.2+dfsg-1*%
%TF.CreationDate,2022-12-11T21:53:29+09:00*%
%TF.ProjectId,Akashi-11,416b6173-6869-42d3-9131-2e6b69636164,rev?*%
%TF.SameCoordinates,Original*%
%TF.FileFunction,Legend,Top*%
%TF.FilePolarity,Positive*%
%FSLAX46Y46*%
G04 Gerber Fmt 4.6, Leading zero omitted, Abs format (unit mm)*
G04 Created by KiCad (PCBNEW 6.0.2+dfsg-1) date 2022-12-11 21:53:29*
%MOMM*%
%LPD*%
G01*
G04 APERTURE LIST*
%ADD10C,0.150000*%
%ADD11C,0.250000*%
%ADD12C,0.120000*%
%ADD13C,0.100000*%
G04 APERTURE END LIST*
D10*
X117125714Y-61412380D02*
X116554285Y-61412380D01*
X116840000Y-61412380D02*
X116840000Y-60412380D01*
X116744761Y-60555238D01*
X116649523Y-60650476D01*
X116554285Y-60698095D01*
X176934761Y-69730476D02*
X176982380Y-69587619D01*
X176982380Y-69349523D01*
X176934761Y-69254285D01*
X176887142Y-69206666D01*
X176791904Y-69159047D01*
X176696666Y-69159047D01*
X176601428Y-69206666D01*
X176553809Y-69254285D01*
X176506190Y-69349523D01*
X176458571Y-69540000D01*
X176410952Y-69635238D01*
X176363333Y-69682857D01*
X176268095Y-69730476D01*
X176172857Y-69730476D01*
X176077619Y-69682857D01*
X176030000Y-69635238D01*
X175982380Y-69540000D01*
X175982380Y-69301904D01*
X176030000Y-69159047D01*
X176982380Y-68730476D02*
X175982380Y-68730476D01*
X175982380Y-68349523D01*
X176030000Y-68254285D01*
X176077619Y-68206666D01*
X176172857Y-68159047D01*
X176315714Y-68159047D01*
X176410952Y-68206666D01*
X176458571Y-68254285D01*
X176506190Y-68349523D01*
X176506190Y-68730476D01*
X176982380Y-67730476D02*
X175982380Y-67730476D01*
X176982380Y-66730476D02*
X176982380Y-67301904D01*
X176982380Y-67016190D02*
X175982380Y-67016190D01*
X176125238Y-67111428D01*
X176220476Y-67206666D01*
X176268095Y-67301904D01*
X177077619Y-66540000D02*
X177077619Y-65778095D01*
X176982380Y-65540000D02*
X175982380Y-65540000D01*
X176696666Y-65206666D01*
X175982380Y-64873333D01*
X176982380Y-64873333D01*
X175982380Y-64206666D02*
X175982380Y-64016190D01*
X176030000Y-63920952D01*
X176125238Y-63825714D01*
X176315714Y-63778095D01*
X176649047Y-63778095D01*
X176839523Y-63825714D01*
X176934761Y-63920952D01*
X176982380Y-64016190D01*
X176982380Y-64206666D01*
X176934761Y-64301904D01*
X176839523Y-64397142D01*
X176649047Y-64444761D01*
X176315714Y-64444761D01*
X176125238Y-64397142D01*
X176030000Y-64301904D01*
X175982380Y-64206666D01*
X176934761Y-63397142D02*
X176982380Y-63254285D01*
X176982380Y-63016190D01*
X176934761Y-62920952D01*
X176887142Y-62873333D01*
X176791904Y-62825714D01*
X176696666Y-62825714D01*
X176601428Y-62873333D01*
X176553809Y-62920952D01*
X176506190Y-63016190D01*
X176458571Y-63206666D01*
X176410952Y-63301904D01*
X176363333Y-63349523D01*
X176268095Y-63397142D01*
X176172857Y-63397142D01*
X176077619Y-63349523D01*
X176030000Y-63301904D01*
X175982380Y-63206666D01*
X175982380Y-62968571D01*
X176030000Y-62825714D01*
X176982380Y-62397142D02*
X175982380Y-62397142D01*
X154448095Y-55951428D02*
X155210000Y-55951428D01*
X154829047Y-56332380D02*
X154829047Y-55570476D01*
X155638571Y-55427619D02*
X155686190Y-55380000D01*
X155781428Y-55332380D01*
X156019523Y-55332380D01*
X156114761Y-55380000D01*
X156162380Y-55427619D01*
X156210000Y-55522857D01*
X156210000Y-55618095D01*
X156162380Y-55760952D01*
X155590952Y-56332380D01*
X156210000Y-56332380D01*
X157067142Y-55665714D02*
X157067142Y-56332380D01*
X156829047Y-55284761D02*
X156590952Y-55999047D01*
X157210000Y-55999047D01*
X157448095Y-55332380D02*
X157781428Y-56332380D01*
X158114761Y-55332380D01*
X126270000Y-102941428D02*
X127031904Y-102941428D01*
X127460476Y-102417619D02*
X127508095Y-102370000D01*
X127603333Y-102322380D01*
X127841428Y-102322380D01*
X127936666Y-102370000D01*
X127984285Y-102417619D01*
X128031904Y-102512857D01*
X128031904Y-102608095D01*
X127984285Y-102750952D01*
X127412857Y-103322380D01*
X128031904Y-103322380D01*
X128460476Y-103227142D02*
X128508095Y-103274761D01*
X128460476Y-103322380D01*
X128412857Y-103274761D01*
X128460476Y-103227142D01*
X128460476Y-103322380D01*
X129412857Y-102322380D02*
X128936666Y-102322380D01*
X128889047Y-102798571D01*
X128936666Y-102750952D01*
X129031904Y-102703333D01*
X129270000Y-102703333D01*
X129365238Y-102750952D01*
X129412857Y-102798571D01*
X129460476Y-102893809D01*
X129460476Y-103131904D01*
X129412857Y-103227142D01*
X129365238Y-103274761D01*
X129270000Y-103322380D01*
X129031904Y-103322380D01*
X128936666Y-103274761D01*
X128889047Y-103227142D01*
X129746190Y-102322380D02*
X130079523Y-103322380D01*
X130412857Y-102322380D01*
X159258095Y-108402380D02*
X159258095Y-107402380D01*
X159258095Y-107878571D02*
X159829523Y-107878571D01*
X159829523Y-108402380D02*
X159829523Y-107402380D01*
X160258095Y-107497619D02*
X160305714Y-107450000D01*
X160400952Y-107402380D01*
X160639047Y-107402380D01*
X160734285Y-107450000D01*
X160781904Y-107497619D01*
X160829523Y-107592857D01*
X160829523Y-107688095D01*
X160781904Y-107830952D01*
X160210476Y-108402380D01*
X160829523Y-108402380D01*
X130294285Y-63428571D02*
X130437142Y-63476190D01*
X130484761Y-63523809D01*
X130532380Y-63619047D01*
X130532380Y-63761904D01*
X130484761Y-63857142D01*
X130437142Y-63904761D01*
X130341904Y-63952380D01*
X129960952Y-63952380D01*
X129960952Y-62952380D01*
X130294285Y-62952380D01*
X130389523Y-63000000D01*
X130437142Y-63047619D01*
X130484761Y-63142857D01*
X130484761Y-63238095D01*
X130437142Y-63333333D01*
X130389523Y-63380952D01*
X130294285Y-63428571D01*
X129960952Y-63428571D01*
X131437142Y-63952380D02*
X130960952Y-63952380D01*
X130960952Y-62952380D01*
X131722857Y-63666666D02*
X132199047Y-63666666D01*
X131627619Y-63952380D02*
X131960952Y-62952380D01*
X132294285Y-63952380D01*
X132627619Y-63952380D02*
X132627619Y-62952380D01*
X133199047Y-63952380D01*
X133199047Y-62952380D01*
X133675238Y-63952380D02*
X133675238Y-62952380D01*
X134246666Y-63952380D02*
X133818095Y-63380952D01*
X134246666Y-62952380D02*
X133675238Y-63523809D01*
X162917142Y-48918571D02*
X162964761Y-48966190D01*
X163012380Y-49109047D01*
X163012380Y-49204285D01*
X162964761Y-49347142D01*
X162869523Y-49442380D01*
X162774285Y-49490000D01*
X162583809Y-49537619D01*
X162440952Y-49537619D01*
X162250476Y-49490000D01*
X162155238Y-49442380D01*
X162060000Y-49347142D01*
X162012380Y-49204285D01*
X162012380Y-49109047D01*
X162060000Y-48966190D01*
X162107619Y-48918571D01*
X162345714Y-48061428D02*
X163012380Y-48061428D01*
X162345714Y-48490000D02*
X162869523Y-48490000D01*
X162964761Y-48442380D01*
X163012380Y-48347142D01*
X163012380Y-48204285D01*
X162964761Y-48109047D01*
X162917142Y-48061428D01*
X163012380Y-47585238D02*
X162345714Y-47585238D01*
X162536190Y-47585238D02*
X162440952Y-47537619D01*
X162393333Y-47490000D01*
X162345714Y-47394761D01*
X162345714Y-47299523D01*
X163012380Y-46966190D02*
X162345714Y-46966190D01*
X162536190Y-46966190D02*
X162440952Y-46918571D01*
X162393333Y-46870952D01*
X162345714Y-46775714D01*
X162345714Y-46680476D01*
X162964761Y-45966190D02*
X163012380Y-46061428D01*
X163012380Y-46251904D01*
X162964761Y-46347142D01*
X162869523Y-46394761D01*
X162488571Y-46394761D01*
X162393333Y-46347142D01*
X162345714Y-46251904D01*
X162345714Y-46061428D01*
X162393333Y-45966190D01*
X162488571Y-45918571D01*
X162583809Y-45918571D01*
X162679047Y-46394761D01*
X162345714Y-45490000D02*
X163012380Y-45490000D01*
X162440952Y-45490000D02*
X162393333Y-45442380D01*
X162345714Y-45347142D01*
X162345714Y-45204285D01*
X162393333Y-45109047D01*
X162488571Y-45061428D01*
X163012380Y-45061428D01*
X162345714Y-44728095D02*
X162345714Y-44347142D01*
X162012380Y-44585238D02*
X162869523Y-44585238D01*
X162964761Y-44537619D01*
X163012380Y-44442380D01*
X163012380Y-44347142D01*
X145137619Y-97242380D02*
X145709047Y-97242380D01*
X145423333Y-98242380D02*
X145423333Y-97242380D01*
X146042380Y-98242380D02*
X146042380Y-97242380D01*
X146518571Y-98242380D02*
X146518571Y-97242380D01*
X146851904Y-97956666D01*
X147185238Y-97242380D01*
X147185238Y-98242380D01*
X148185238Y-98242380D02*
X147613809Y-98242380D01*
X147899523Y-98242380D02*
X147899523Y-97242380D01*
X147804285Y-97385238D01*
X147709047Y-97480476D01*
X147613809Y-97528095D01*
X148375714Y-98337619D02*
X149137619Y-98337619D01*
X149947142Y-98147142D02*
X149899523Y-98194761D01*
X149756666Y-98242380D01*
X149661428Y-98242380D01*
X149518571Y-98194761D01*
X149423333Y-98099523D01*
X149375714Y-98004285D01*
X149328095Y-97813809D01*
X149328095Y-97670952D01*
X149375714Y-97480476D01*
X149423333Y-97385238D01*
X149518571Y-97290000D01*
X149661428Y-97242380D01*
X149756666Y-97242380D01*
X149899523Y-97290000D01*
X149947142Y-97337619D01*
X150375714Y-98242380D02*
X150375714Y-97242380D01*
X150375714Y-97718571D02*
X150947142Y-97718571D01*
X150947142Y-98242380D02*
X150947142Y-97242380D01*
X151947142Y-98242380D02*
X151375714Y-98242380D01*
X151661428Y-98242380D02*
X151661428Y-97242380D01*
X151566190Y-97385238D01*
X151470952Y-97480476D01*
X151375714Y-97528095D01*
X177705000Y-47696428D02*
X178466904Y-47696428D01*
X178085952Y-48077380D02*
X178085952Y-47315476D01*
X178847857Y-47077380D02*
X179466904Y-47077380D01*
X179133571Y-47458333D01*
X179276428Y-47458333D01*
X179371666Y-47505952D01*
X179419285Y-47553571D01*
X179466904Y-47648809D01*
X179466904Y-47886904D01*
X179419285Y-47982142D01*
X179371666Y-48029761D01*
X179276428Y-48077380D01*
X178990714Y-48077380D01*
X178895476Y-48029761D01*
X178847857Y-47982142D01*
X179895476Y-47982142D02*
X179943095Y-48029761D01*
X179895476Y-48077380D01*
X179847857Y-48029761D01*
X179895476Y-47982142D01*
X179895476Y-48077380D01*
X180276428Y-47077380D02*
X180895476Y-47077380D01*
X180562142Y-47458333D01*
X180705000Y-47458333D01*
X180800238Y-47505952D01*
X180847857Y-47553571D01*
X180895476Y-47648809D01*
X180895476Y-47886904D01*
X180847857Y-47982142D01*
X180800238Y-48029761D01*
X180705000Y-48077380D01*
X180419285Y-48077380D01*
X180324047Y-48029761D01*
X180276428Y-47982142D01*
X181181190Y-47077380D02*
X181514523Y-48077380D01*
X181847857Y-47077380D01*
D11*
X120063095Y-49982380D02*
X119729761Y-49506190D01*
X119491666Y-49982380D02*
X119491666Y-48982380D01*
X119872619Y-48982380D01*
X119967857Y-49030000D01*
X120015476Y-49077619D01*
X120063095Y-49172857D01*
X120063095Y-49315714D01*
X120015476Y-49410952D01*
X119967857Y-49458571D01*
X119872619Y-49506190D01*
X119491666Y-49506190D01*
X120491666Y-49458571D02*
X120825000Y-49458571D01*
X120967857Y-49982380D02*
X120491666Y-49982380D01*
X120491666Y-48982380D01*
X120967857Y-48982380D01*
X121348809Y-49934761D02*
X121491666Y-49982380D01*
X121729761Y-49982380D01*
X121825000Y-49934761D01*
X121872619Y-49887142D01*
X121920238Y-49791904D01*
X121920238Y-49696666D01*
X121872619Y-49601428D01*
X121825000Y-49553809D01*
X121729761Y-49506190D01*
X121539285Y-49458571D01*
X121444047Y-49410952D01*
X121396428Y-49363333D01*
X121348809Y-49268095D01*
X121348809Y-49172857D01*
X121396428Y-49077619D01*
X121444047Y-49030000D01*
X121539285Y-48982380D01*
X121777380Y-48982380D01*
X121920238Y-49030000D01*
X122348809Y-49458571D02*
X122682142Y-49458571D01*
X122825000Y-49982380D02*
X122348809Y-49982380D01*
X122348809Y-48982380D01*
X122825000Y-48982380D01*
X123110714Y-48982380D02*
X123682142Y-48982380D01*
X123396428Y-49982380D02*
X123396428Y-48982380D01*
D10*
X130937142Y-70302380D02*
X130460952Y-70302380D01*
X130460952Y-69302380D01*
X131460952Y-69302380D02*
X131651428Y-69302380D01*
X131746666Y-69350000D01*
X131841904Y-69445238D01*
X131889523Y-69635714D01*
X131889523Y-69969047D01*
X131841904Y-70159523D01*
X131746666Y-70254761D01*
X131651428Y-70302380D01*
X131460952Y-70302380D01*
X131365714Y-70254761D01*
X131270476Y-70159523D01*
X131222857Y-69969047D01*
X131222857Y-69635714D01*
X131270476Y-69445238D01*
X131365714Y-69350000D01*
X131460952Y-69302380D01*
X132270476Y-70016666D02*
X132746666Y-70016666D01*
X132175238Y-70302380D02*
X132508571Y-69302380D01*
X132841904Y-70302380D01*
X133175238Y-70302380D02*
X133175238Y-69302380D01*
X133413333Y-69302380D01*
X133556190Y-69350000D01*
X133651428Y-69445238D01*
X133699047Y-69540476D01*
X133746666Y-69730952D01*
X133746666Y-69873809D01*
X133699047Y-70064285D01*
X133651428Y-70159523D01*
X133556190Y-70254761D01*
X133413333Y-70302380D01*
X133175238Y-70302380D01*
X176934761Y-101147142D02*
X176982380Y-101004285D01*
X176982380Y-100766190D01*
X176934761Y-100670952D01*
X176887142Y-100623333D01*
X176791904Y-100575714D01*
X176696666Y-100575714D01*
X176601428Y-100623333D01*
X176553809Y-100670952D01*
X176506190Y-100766190D01*
X176458571Y-100956666D01*
X176410952Y-101051904D01*
X176363333Y-101099523D01*
X176268095Y-101147142D01*
X176172857Y-101147142D01*
X176077619Y-101099523D01*
X176030000Y-101051904D01*
X175982380Y-100956666D01*
X175982380Y-100718571D01*
X176030000Y-100575714D01*
X176982380Y-100147142D02*
X175982380Y-100147142D01*
X175982380Y-99766190D01*
X176030000Y-99670952D01*
X176077619Y-99623333D01*
X176172857Y-99575714D01*
X176315714Y-99575714D01*
X176410952Y-99623333D01*
X176458571Y-99670952D01*
X176506190Y-99766190D01*
X176506190Y-100147142D01*
X176982380Y-99147142D02*
X175982380Y-99147142D01*
X176982380Y-98147142D02*
X176982380Y-98718571D01*
X176982380Y-98432857D02*
X175982380Y-98432857D01*
X176125238Y-98528095D01*
X176220476Y-98623333D01*
X176268095Y-98718571D01*
X177077619Y-97956666D02*
X177077619Y-97194761D01*
X176934761Y-97004285D02*
X176982380Y-96861428D01*
X176982380Y-96623333D01*
X176934761Y-96528095D01*
X176887142Y-96480476D01*
X176791904Y-96432857D01*
X176696666Y-96432857D01*
X176601428Y-96480476D01*
X176553809Y-96528095D01*
X176506190Y-96623333D01*
X176458571Y-96813809D01*
X176410952Y-96909047D01*
X176363333Y-96956666D01*
X176268095Y-97004285D01*
X176172857Y-97004285D01*
X176077619Y-96956666D01*
X176030000Y-96909047D01*
X175982380Y-96813809D01*
X175982380Y-96575714D01*
X176030000Y-96432857D01*
X176887142Y-95432857D02*
X176934761Y-95480476D01*
X176982380Y-95623333D01*
X176982380Y-95718571D01*
X176934761Y-95861428D01*
X176839523Y-95956666D01*
X176744285Y-96004285D01*
X176553809Y-96051904D01*
X176410952Y-96051904D01*
X176220476Y-96004285D01*
X176125238Y-95956666D01*
X176030000Y-95861428D01*
X175982380Y-95718571D01*
X175982380Y-95623333D01*
X176030000Y-95480476D01*
X176077619Y-95432857D01*
X176982380Y-95004285D02*
X175982380Y-95004285D01*
X176982380Y-94432857D02*
X176410952Y-94861428D01*
X175982380Y-94432857D02*
X176553809Y-95004285D01*
X143867619Y-107402380D02*
X144439047Y-107402380D01*
X144153333Y-108402380D02*
X144153333Y-107402380D01*
X144772380Y-108402380D02*
X144772380Y-107402380D01*
X145248571Y-108402380D02*
X145248571Y-107402380D01*
X145581904Y-108116666D01*
X145915238Y-107402380D01*
X145915238Y-108402380D01*
X146343809Y-107497619D02*
X146391428Y-107450000D01*
X146486666Y-107402380D01*
X146724761Y-107402380D01*
X146820000Y-107450000D01*
X146867619Y-107497619D01*
X146915238Y-107592857D01*
X146915238Y-107688095D01*
X146867619Y-107830952D01*
X146296190Y-108402380D01*
X146915238Y-108402380D01*
X147105714Y-108497619D02*
X147867619Y-108497619D01*
X148677142Y-108307142D02*
X148629523Y-108354761D01*
X148486666Y-108402380D01*
X148391428Y-108402380D01*
X148248571Y-108354761D01*
X148153333Y-108259523D01*
X148105714Y-108164285D01*
X148058095Y-107973809D01*
X148058095Y-107830952D01*
X148105714Y-107640476D01*
X148153333Y-107545238D01*
X148248571Y-107450000D01*
X148391428Y-107402380D01*
X148486666Y-107402380D01*
X148629523Y-107450000D01*
X148677142Y-107497619D01*
X149105714Y-108402380D02*
X149105714Y-107402380D01*
X149105714Y-107878571D02*
X149677142Y-107878571D01*
X149677142Y-108402380D02*
X149677142Y-107402380D01*
X150677142Y-108402380D02*
X150105714Y-108402380D01*
X150391428Y-108402380D02*
X150391428Y-107402380D01*
X150296190Y-107545238D01*
X150200952Y-107640476D01*
X150105714Y-107688095D01*
X163068095Y-103322380D02*
X163068095Y-102322380D01*
X163068095Y-102798571D02*
X163639523Y-102798571D01*
X163639523Y-103322380D02*
X163639523Y-102322380D01*
X164639523Y-103322380D02*
X164068095Y-103322380D01*
X164353809Y-103322380D02*
X164353809Y-102322380D01*
X164258571Y-102465238D01*
X164163333Y-102560476D01*
X164068095Y-102608095D01*
X130571904Y-38266666D02*
X131048095Y-38266666D01*
X130476666Y-38552380D02*
X130810000Y-37552380D01*
X131143333Y-38552380D01*
X174275714Y-107767380D02*
X173704285Y-107767380D01*
X173990000Y-107767380D02*
X173990000Y-106767380D01*
X173894761Y-106910238D01*
X173799523Y-107005476D01*
X173704285Y-107053095D01*
X157313809Y-95972380D02*
X157885238Y-95972380D01*
X157599523Y-96972380D02*
X157599523Y-95972380D01*
X158218571Y-96972380D02*
X158218571Y-95972380D01*
X158694761Y-96972380D02*
X158694761Y-95972380D01*
X159028095Y-96686666D01*
X159361428Y-95972380D01*
X159361428Y-96972380D01*
X160361428Y-96972380D02*
X159790000Y-96972380D01*
X160075714Y-96972380D02*
X160075714Y-95972380D01*
X159980476Y-96115238D01*
X159885238Y-96210476D01*
X159790000Y-96258095D01*
X160551904Y-97067619D02*
X161313809Y-97067619D01*
X162123333Y-96877142D02*
X162075714Y-96924761D01*
X161932857Y-96972380D01*
X161837619Y-96972380D01*
X161694761Y-96924761D01*
X161599523Y-96829523D01*
X161551904Y-96734285D01*
X161504285Y-96543809D01*
X161504285Y-96400952D01*
X161551904Y-96210476D01*
X161599523Y-96115238D01*
X161694761Y-96020000D01*
X161837619Y-95972380D01*
X161932857Y-95972380D01*
X162075714Y-96020000D01*
X162123333Y-96067619D01*
X162551904Y-96972380D02*
X162551904Y-95972380D01*
X162551904Y-96448571D02*
X163123333Y-96448571D01*
X163123333Y-96972380D02*
X163123333Y-95972380D01*
X164123333Y-96972380D02*
X163551904Y-96972380D01*
X163837619Y-96972380D02*
X163837619Y-95972380D01*
X163742380Y-96115238D01*
X163647142Y-96210476D01*
X163551904Y-96258095D01*
X164551904Y-96972380D02*
X164551904Y-95972380D01*
X165123333Y-96972380D01*
X165123333Y-95972380D01*
X138938095Y-56650000D02*
X138842857Y-56602380D01*
X138700000Y-56602380D01*
X138557142Y-56650000D01*
X138461904Y-56745238D01*
X138414285Y-56840476D01*
X138366666Y-57030952D01*
X138366666Y-57173809D01*
X138414285Y-57364285D01*
X138461904Y-57459523D01*
X138557142Y-57554761D01*
X138700000Y-57602380D01*
X138795238Y-57602380D01*
X138938095Y-57554761D01*
X138985714Y-57507142D01*
X138985714Y-57173809D01*
X138795238Y-57173809D01*
X139414285Y-57602380D02*
X139414285Y-56602380D01*
X139985714Y-57602380D01*
X139985714Y-56602380D01*
X140461904Y-57602380D02*
X140461904Y-56602380D01*
X140700000Y-56602380D01*
X140842857Y-56650000D01*
X140938095Y-56745238D01*
X140985714Y-56840476D01*
X141033333Y-57030952D01*
X141033333Y-57173809D01*
X140985714Y-57364285D01*
X140938095Y-57459523D01*
X140842857Y-57554761D01*
X140700000Y-57602380D01*
X140461904Y-57602380D01*
%TO.C,C5*%
X139940833Y-71637142D02*
X139893214Y-71684761D01*
X139750357Y-71732380D01*
X139655119Y-71732380D01*
X139512261Y-71684761D01*
X139417023Y-71589523D01*
X139369404Y-71494285D01*
X139321785Y-71303809D01*
X139321785Y-71160952D01*
X139369404Y-70970476D01*
X139417023Y-70875238D01*
X139512261Y-70780000D01*
X139655119Y-70732380D01*
X139750357Y-70732380D01*
X139893214Y-70780000D01*
X139940833Y-70827619D01*
X140845595Y-70732380D02*
X140369404Y-70732380D01*
X140321785Y-71208571D01*
X140369404Y-71160952D01*
X140464642Y-71113333D01*
X140702738Y-71113333D01*
X140797976Y-71160952D01*
X140845595Y-71208571D01*
X140893214Y-71303809D01*
X140893214Y-71541904D01*
X140845595Y-71637142D01*
X140797976Y-71684761D01*
X140702738Y-71732380D01*
X140464642Y-71732380D01*
X140369404Y-71684761D01*
X140321785Y-71637142D01*
%TO.C,R1*%
X132692380Y-48426666D02*
X132216190Y-48760000D01*
X132692380Y-48998095D02*
X131692380Y-48998095D01*
X131692380Y-48617142D01*
X131740000Y-48521904D01*
X131787619Y-48474285D01*
X131882857Y-48426666D01*
X132025714Y-48426666D01*
X132120952Y-48474285D01*
X132168571Y-48521904D01*
X132216190Y-48617142D01*
X132216190Y-48998095D01*
X132692380Y-47474285D02*
X132692380Y-48045714D01*
X132692380Y-47760000D02*
X131692380Y-47760000D01*
X131835238Y-47855238D01*
X131930476Y-47950476D01*
X131978095Y-48045714D01*
%TO.C,R3*%
X145883333Y-52682380D02*
X145550000Y-52206190D01*
X145311904Y-52682380D02*
X145311904Y-51682380D01*
X145692857Y-51682380D01*
X145788095Y-51730000D01*
X145835714Y-51777619D01*
X145883333Y-51872857D01*
X145883333Y-52015714D01*
X145835714Y-52110952D01*
X145788095Y-52158571D01*
X145692857Y-52206190D01*
X145311904Y-52206190D01*
X146216666Y-51682380D02*
X146835714Y-51682380D01*
X146502380Y-52063333D01*
X146645238Y-52063333D01*
X146740476Y-52110952D01*
X146788095Y-52158571D01*
X146835714Y-52253809D01*
X146835714Y-52491904D01*
X146788095Y-52587142D01*
X146740476Y-52634761D01*
X146645238Y-52682380D01*
X146359523Y-52682380D01*
X146264285Y-52634761D01*
X146216666Y-52587142D01*
%TO.C,TP10*%
X157711904Y-101012380D02*
X158283333Y-101012380D01*
X157997619Y-102012380D02*
X157997619Y-101012380D01*
X158616666Y-102012380D02*
X158616666Y-101012380D01*
X158997619Y-101012380D01*
X159092857Y-101060000D01*
X159140476Y-101107619D01*
X159188095Y-101202857D01*
X159188095Y-101345714D01*
X159140476Y-101440952D01*
X159092857Y-101488571D01*
X158997619Y-101536190D01*
X158616666Y-101536190D01*
X160140476Y-102012380D02*
X159569047Y-102012380D01*
X159854761Y-102012380D02*
X159854761Y-101012380D01*
X159759523Y-101155238D01*
X159664285Y-101250476D01*
X159569047Y-101298095D01*
X160759523Y-101012380D02*
X160854761Y-101012380D01*
X160950000Y-101060000D01*
X160997619Y-101107619D01*
X161045238Y-101202857D01*
X161092857Y-101393333D01*
X161092857Y-101631428D01*
X161045238Y-101821904D01*
X160997619Y-101917142D01*
X160950000Y-101964761D01*
X160854761Y-102012380D01*
X160759523Y-102012380D01*
X160664285Y-101964761D01*
X160616666Y-101917142D01*
X160569047Y-101821904D01*
X160521428Y-101631428D01*
X160521428Y-101393333D01*
X160569047Y-101202857D01*
X160616666Y-101107619D01*
X160664285Y-101060000D01*
X160759523Y-101012380D01*
%TO.C,C7*%
X153503333Y-38297142D02*
X153455714Y-38344761D01*
X153312857Y-38392380D01*
X153217619Y-38392380D01*
X153074761Y-38344761D01*
X152979523Y-38249523D01*
X152931904Y-38154285D01*
X152884285Y-37963809D01*
X152884285Y-37820952D01*
X152931904Y-37630476D01*
X152979523Y-37535238D01*
X153074761Y-37440000D01*
X153217619Y-37392380D01*
X153312857Y-37392380D01*
X153455714Y-37440000D01*
X153503333Y-37487619D01*
X153836666Y-37392380D02*
X154503333Y-37392380D01*
X154074761Y-38392380D01*
%TO.C,R4*%
X160260833Y-104492380D02*
X159927500Y-104016190D01*
X159689404Y-104492380D02*
X159689404Y-103492380D01*
X160070357Y-103492380D01*
X160165595Y-103540000D01*
X160213214Y-103587619D01*
X160260833Y-103682857D01*
X160260833Y-103825714D01*
X160213214Y-103920952D01*
X160165595Y-103968571D01*
X160070357Y-104016190D01*
X159689404Y-104016190D01*
X161117976Y-103825714D02*
X161117976Y-104492380D01*
X160879880Y-103444761D02*
X160641785Y-104159047D01*
X161260833Y-104159047D01*
%TO.C,TP2*%
X130248095Y-107362380D02*
X130819523Y-107362380D01*
X130533809Y-108362380D02*
X130533809Y-107362380D01*
X131152857Y-108362380D02*
X131152857Y-107362380D01*
X131533809Y-107362380D01*
X131629047Y-107410000D01*
X131676666Y-107457619D01*
X131724285Y-107552857D01*
X131724285Y-107695714D01*
X131676666Y-107790952D01*
X131629047Y-107838571D01*
X131533809Y-107886190D01*
X131152857Y-107886190D01*
X132105238Y-107457619D02*
X132152857Y-107410000D01*
X132248095Y-107362380D01*
X132486190Y-107362380D01*
X132581428Y-107410000D01*
X132629047Y-107457619D01*
X132676666Y-107552857D01*
X132676666Y-107648095D01*
X132629047Y-107790952D01*
X132057619Y-108362380D01*
X132676666Y-108362380D01*
%TO.C,U4*%
X146425595Y-43722380D02*
X146425595Y-44531904D01*
X146473214Y-44627142D01*
X146520833Y-44674761D01*
X146616071Y-44722380D01*
X146806547Y-44722380D01*
X146901785Y-44674761D01*
X146949404Y-44627142D01*
X146997023Y-44531904D01*
X146997023Y-43722380D01*
X147901785Y-44055714D02*
X147901785Y-44722380D01*
X147663690Y-43674761D02*
X147425595Y-44389047D01*
X148044642Y-44389047D01*
%TO.C,TP9*%
X126438095Y-65452380D02*
X127009523Y-65452380D01*
X126723809Y-66452380D02*
X126723809Y-65452380D01*
X127342857Y-66452380D02*
X127342857Y-65452380D01*
X127723809Y-65452380D01*
X127819047Y-65500000D01*
X127866666Y-65547619D01*
X127914285Y-65642857D01*
X127914285Y-65785714D01*
X127866666Y-65880952D01*
X127819047Y-65928571D01*
X127723809Y-65976190D01*
X127342857Y-65976190D01*
X128390476Y-66452380D02*
X128580952Y-66452380D01*
X128676190Y-66404761D01*
X128723809Y-66357142D01*
X128819047Y-66214285D01*
X128866666Y-66023809D01*
X128866666Y-65642857D01*
X128819047Y-65547619D01*
X128771428Y-65500000D01*
X128676190Y-65452380D01*
X128485714Y-65452380D01*
X128390476Y-65500000D01*
X128342857Y-65547619D01*
X128295238Y-65642857D01*
X128295238Y-65880952D01*
X128342857Y-65976190D01*
X128390476Y-66023809D01*
X128485714Y-66071428D01*
X128676190Y-66071428D01*
X128771428Y-66023809D01*
X128819047Y-65976190D01*
X128866666Y-65880952D01*
%TO.C,U3*%
X174498095Y-45312380D02*
X174498095Y-46121904D01*
X174545714Y-46217142D01*
X174593333Y-46264761D01*
X174688571Y-46312380D01*
X174879047Y-46312380D01*
X174974285Y-46264761D01*
X175021904Y-46217142D01*
X175069523Y-46121904D01*
X175069523Y-45312380D01*
X175450476Y-45312380D02*
X176069523Y-45312380D01*
X175736190Y-45693333D01*
X175879047Y-45693333D01*
X175974285Y-45740952D01*
X176021904Y-45788571D01*
X176069523Y-45883809D01*
X176069523Y-46121904D01*
X176021904Y-46217142D01*
X175974285Y-46264761D01*
X175879047Y-46312380D01*
X175593333Y-46312380D01*
X175498095Y-46264761D01*
X175450476Y-46217142D01*
%TO.C,L2*%
X147153333Y-37282380D02*
X146677142Y-37282380D01*
X146677142Y-36282380D01*
X147439047Y-36377619D02*
X147486666Y-36330000D01*
X147581904Y-36282380D01*
X147820000Y-36282380D01*
X147915238Y-36330000D01*
X147962857Y-36377619D01*
X148010476Y-36472857D01*
X148010476Y-36568095D01*
X147962857Y-36710952D01*
X147391428Y-37282380D01*
X148010476Y-37282380D01*
X143510000Y-37552380D02*
X143510000Y-37790476D01*
X143271904Y-37695238D02*
X143510000Y-37790476D01*
X143748095Y-37695238D01*
X143367142Y-37980952D02*
X143510000Y-37790476D01*
X143652857Y-37980952D01*
%TO.C,TP13*%
X145011904Y-102282380D02*
X145583333Y-102282380D01*
X145297619Y-103282380D02*
X145297619Y-102282380D01*
X145916666Y-103282380D02*
X145916666Y-102282380D01*
X146297619Y-102282380D01*
X146392857Y-102330000D01*
X146440476Y-102377619D01*
X146488095Y-102472857D01*
X146488095Y-102615714D01*
X146440476Y-102710952D01*
X146392857Y-102758571D01*
X146297619Y-102806190D01*
X145916666Y-102806190D01*
X147440476Y-103282380D02*
X146869047Y-103282380D01*
X147154761Y-103282380D02*
X147154761Y-102282380D01*
X147059523Y-102425238D01*
X146964285Y-102520476D01*
X146869047Y-102568095D01*
X147773809Y-102282380D02*
X148392857Y-102282380D01*
X148059523Y-102663333D01*
X148202380Y-102663333D01*
X148297619Y-102710952D01*
X148345238Y-102758571D01*
X148392857Y-102853809D01*
X148392857Y-103091904D01*
X148345238Y-103187142D01*
X148297619Y-103234761D01*
X148202380Y-103282380D01*
X147916666Y-103282380D01*
X147821428Y-103234761D01*
X147773809Y-103187142D01*
%TO.C,TP12*%
X156441904Y-108632380D02*
X157013333Y-108632380D01*
X156727619Y-109632380D02*
X156727619Y-108632380D01*
X157346666Y-109632380D02*
X157346666Y-108632380D01*
X157727619Y-108632380D01*
X157822857Y-108680000D01*
X157870476Y-108727619D01*
X157918095Y-108822857D01*
X157918095Y-108965714D01*
X157870476Y-109060952D01*
X157822857Y-109108571D01*
X157727619Y-109156190D01*
X157346666Y-109156190D01*
X158870476Y-109632380D02*
X158299047Y-109632380D01*
X158584761Y-109632380D02*
X158584761Y-108632380D01*
X158489523Y-108775238D01*
X158394285Y-108870476D01*
X158299047Y-108918095D01*
X159251428Y-108727619D02*
X159299047Y-108680000D01*
X159394285Y-108632380D01*
X159632380Y-108632380D01*
X159727619Y-108680000D01*
X159775238Y-108727619D01*
X159822857Y-108822857D01*
X159822857Y-108918095D01*
X159775238Y-109060952D01*
X159203809Y-109632380D01*
X159822857Y-109632380D01*
%TO.C,TP7*%
X147328095Y-55332380D02*
X147899523Y-55332380D01*
X147613809Y-56332380D02*
X147613809Y-55332380D01*
X148232857Y-56332380D02*
X148232857Y-55332380D01*
X148613809Y-55332380D01*
X148709047Y-55380000D01*
X148756666Y-55427619D01*
X148804285Y-55522857D01*
X148804285Y-55665714D01*
X148756666Y-55760952D01*
X148709047Y-55808571D01*
X148613809Y-55856190D01*
X148232857Y-55856190D01*
X149137619Y-55332380D02*
X149804285Y-55332380D01*
X149375714Y-56332380D01*
%TO.C,C2*%
X136993333Y-97987142D02*
X136945714Y-98034761D01*
X136802857Y-98082380D01*
X136707619Y-98082380D01*
X136564761Y-98034761D01*
X136469523Y-97939523D01*
X136421904Y-97844285D01*
X136374285Y-97653809D01*
X136374285Y-97510952D01*
X136421904Y-97320476D01*
X136469523Y-97225238D01*
X136564761Y-97130000D01*
X136707619Y-97082380D01*
X136802857Y-97082380D01*
X136945714Y-97130000D01*
X136993333Y-97177619D01*
X137374285Y-97177619D02*
X137421904Y-97130000D01*
X137517142Y-97082380D01*
X137755238Y-97082380D01*
X137850476Y-97130000D01*
X137898095Y-97177619D01*
X137945714Y-97272857D01*
X137945714Y-97368095D01*
X137898095Y-97510952D01*
X137326666Y-98082380D01*
X137945714Y-98082380D01*
%TO.C,C6*%
X176887142Y-56046679D02*
X176934761Y-56094298D01*
X176982380Y-56237155D01*
X176982380Y-56332393D01*
X176934761Y-56475251D01*
X176839523Y-56570489D01*
X176744285Y-56618108D01*
X176553809Y-56665727D01*
X176410952Y-56665727D01*
X176220476Y-56618108D01*
X176125238Y-56570489D01*
X176030000Y-56475251D01*
X175982380Y-56332393D01*
X175982380Y-56237155D01*
X176030000Y-56094298D01*
X176077619Y-56046679D01*
X175982380Y-55189536D02*
X175982380Y-55380013D01*
X176030000Y-55475251D01*
X176077619Y-55522870D01*
X176220476Y-55618108D01*
X176410952Y-55665727D01*
X176791904Y-55665727D01*
X176887142Y-55618108D01*
X176934761Y-55570489D01*
X176982380Y-55475251D01*
X176982380Y-55284774D01*
X176934761Y-55189536D01*
X176887142Y-55141917D01*
X176791904Y-55094298D01*
X176553809Y-55094298D01*
X176458571Y-55141917D01*
X176410952Y-55189536D01*
X176363333Y-55284774D01*
X176363333Y-55475251D01*
X176410952Y-55570489D01*
X176458571Y-55618108D01*
X176553809Y-55665727D01*
%TO.C,JP1*%
X175061666Y-52687380D02*
X175061666Y-53401666D01*
X175014047Y-53544523D01*
X174918809Y-53639761D01*
X174775952Y-53687380D01*
X174680714Y-53687380D01*
X175537857Y-53687380D02*
X175537857Y-52687380D01*
X175918809Y-52687380D01*
X176014047Y-52735000D01*
X176061666Y-52782619D01*
X176109285Y-52877857D01*
X176109285Y-53020714D01*
X176061666Y-53115952D01*
X176014047Y-53163571D01*
X175918809Y-53211190D01*
X175537857Y-53211190D01*
X177061666Y-53687380D02*
X176490238Y-53687380D01*
X176775952Y-53687380D02*
X176775952Y-52687380D01*
X176680714Y-52830238D01*
X176585476Y-52925476D01*
X176490238Y-52973095D01*
%TO.C,J1*%
X169851666Y-108457380D02*
X169851666Y-109171666D01*
X169804047Y-109314523D01*
X169708809Y-109409761D01*
X169565952Y-109457380D01*
X169470714Y-109457380D01*
X170851666Y-109457380D02*
X170280238Y-109457380D01*
X170565952Y-109457380D02*
X170565952Y-108457380D01*
X170470714Y-108600238D01*
X170375476Y-108695476D01*
X170280238Y-108743095D01*
%TO.C,R5*%
X142852380Y-102174166D02*
X142376190Y-102507500D01*
X142852380Y-102745595D02*
X141852380Y-102745595D01*
X141852380Y-102364642D01*
X141900000Y-102269404D01*
X141947619Y-102221785D01*
X142042857Y-102174166D01*
X142185714Y-102174166D01*
X142280952Y-102221785D01*
X142328571Y-102269404D01*
X142376190Y-102364642D01*
X142376190Y-102745595D01*
X141852380Y-101269404D02*
X141852380Y-101745595D01*
X142328571Y-101793214D01*
X142280952Y-101745595D01*
X142233333Y-101650357D01*
X142233333Y-101412261D01*
X142280952Y-101317023D01*
X142328571Y-101269404D01*
X142423809Y-101221785D01*
X142661904Y-101221785D01*
X142757142Y-101269404D01*
X142804761Y-101317023D01*
X142852380Y-101412261D01*
X142852380Y-101650357D01*
X142804761Y-101745595D01*
X142757142Y-101793214D01*
%TO.C,C4*%
X140217142Y-102174166D02*
X140264761Y-102221785D01*
X140312380Y-102364642D01*
X140312380Y-102459880D01*
X140264761Y-102602738D01*
X140169523Y-102697976D01*
X140074285Y-102745595D01*
X139883809Y-102793214D01*
X139740952Y-102793214D01*
X139550476Y-102745595D01*
X139455238Y-102697976D01*
X139360000Y-102602738D01*
X139312380Y-102459880D01*
X139312380Y-102364642D01*
X139360000Y-102221785D01*
X139407619Y-102174166D01*
X139645714Y-101317023D02*
X140312380Y-101317023D01*
X139264761Y-101555119D02*
X139979047Y-101793214D01*
X139979047Y-101174166D01*
%TO.C,C1*%
X169107142Y-39536666D02*
X169154761Y-39584285D01*
X169202380Y-39727142D01*
X169202380Y-39822380D01*
X169154761Y-39965238D01*
X169059523Y-40060476D01*
X168964285Y-40108095D01*
X168773809Y-40155714D01*
X168630952Y-40155714D01*
X168440476Y-40108095D01*
X168345238Y-40060476D01*
X168250000Y-39965238D01*
X168202380Y-39822380D01*
X168202380Y-39727142D01*
X168250000Y-39584285D01*
X168297619Y-39536666D01*
X169202380Y-38584285D02*
X169202380Y-39155714D01*
X169202380Y-38870000D02*
X168202380Y-38870000D01*
X168345238Y-38965238D01*
X168440476Y-39060476D01*
X168488095Y-39155714D01*
%TO.C,D2*%
X136421904Y-104432380D02*
X136421904Y-103432380D01*
X136660000Y-103432380D01*
X136802857Y-103480000D01*
X136898095Y-103575238D01*
X136945714Y-103670476D01*
X136993333Y-103860952D01*
X136993333Y-104003809D01*
X136945714Y-104194285D01*
X136898095Y-104289523D01*
X136802857Y-104384761D01*
X136660000Y-104432380D01*
X136421904Y-104432380D01*
X137374285Y-103527619D02*
X137421904Y-103480000D01*
X137517142Y-103432380D01*
X137755238Y-103432380D01*
X137850476Y-103480000D01*
X137898095Y-103527619D01*
X137945714Y-103622857D01*
X137945714Y-103718095D01*
X137898095Y-103860952D01*
X137326666Y-104432380D01*
X137945714Y-104432380D01*
%TO.C,R2*%
X150963333Y-52682380D02*
X150630000Y-52206190D01*
X150391904Y-52682380D02*
X150391904Y-51682380D01*
X150772857Y-51682380D01*
X150868095Y-51730000D01*
X150915714Y-51777619D01*
X150963333Y-51872857D01*
X150963333Y-52015714D01*
X150915714Y-52110952D01*
X150868095Y-52158571D01*
X150772857Y-52206190D01*
X150391904Y-52206190D01*
X151344285Y-51777619D02*
X151391904Y-51730000D01*
X151487142Y-51682380D01*
X151725238Y-51682380D01*
X151820476Y-51730000D01*
X151868095Y-51777619D01*
X151915714Y-51872857D01*
X151915714Y-51968095D01*
X151868095Y-52110952D01*
X151296666Y-52682380D01*
X151915714Y-52682380D01*
%TO.C,D3*%
X133881904Y-42362380D02*
X133881904Y-41362380D01*
X134120000Y-41362380D01*
X134262857Y-41410000D01*
X134358095Y-41505238D01*
X134405714Y-41600476D01*
X134453333Y-41790952D01*
X134453333Y-41933809D01*
X134405714Y-42124285D01*
X134358095Y-42219523D01*
X134262857Y-42314761D01*
X134120000Y-42362380D01*
X133881904Y-42362380D01*
X134786666Y-41362380D02*
X135405714Y-41362380D01*
X135072380Y-41743333D01*
X135215238Y-41743333D01*
X135310476Y-41790952D01*
X135358095Y-41838571D01*
X135405714Y-41933809D01*
X135405714Y-42171904D01*
X135358095Y-42267142D01*
X135310476Y-42314761D01*
X135215238Y-42362380D01*
X134929523Y-42362380D01*
X134834285Y-42314761D01*
X134786666Y-42267142D01*
%TO.C,C8*%
X147788333Y-68777142D02*
X147740714Y-68824761D01*
X147597857Y-68872380D01*
X147502619Y-68872380D01*
X147359761Y-68824761D01*
X147264523Y-68729523D01*
X147216904Y-68634285D01*
X147169285Y-68443809D01*
X147169285Y-68300952D01*
X147216904Y-68110476D01*
X147264523Y-68015238D01*
X147359761Y-67920000D01*
X147502619Y-67872380D01*
X147597857Y-67872380D01*
X147740714Y-67920000D01*
X147788333Y-67967619D01*
X148359761Y-68300952D02*
X148264523Y-68253333D01*
X148216904Y-68205714D01*
X148169285Y-68110476D01*
X148169285Y-68062857D01*
X148216904Y-67967619D01*
X148264523Y-67920000D01*
X148359761Y-67872380D01*
X148550238Y-67872380D01*
X148645476Y-67920000D01*
X148693095Y-67967619D01*
X148740714Y-68062857D01*
X148740714Y-68110476D01*
X148693095Y-68205714D01*
X148645476Y-68253333D01*
X148550238Y-68300952D01*
X148359761Y-68300952D01*
X148264523Y-68348571D01*
X148216904Y-68396190D01*
X148169285Y-68491428D01*
X148169285Y-68681904D01*
X148216904Y-68777142D01*
X148264523Y-68824761D01*
X148359761Y-68872380D01*
X148550238Y-68872380D01*
X148645476Y-68824761D01*
X148693095Y-68777142D01*
X148740714Y-68681904D01*
X148740714Y-68491428D01*
X148693095Y-68396190D01*
X148645476Y-68348571D01*
X148550238Y-68300952D01*
%TO.C,R6*%
X153503333Y-105702380D02*
X153170000Y-105226190D01*
X152931904Y-105702380D02*
X152931904Y-104702380D01*
X153312857Y-104702380D01*
X153408095Y-104750000D01*
X153455714Y-104797619D01*
X153503333Y-104892857D01*
X153503333Y-105035714D01*
X153455714Y-105130952D01*
X153408095Y-105178571D01*
X153312857Y-105226190D01*
X152931904Y-105226190D01*
X154360476Y-104702380D02*
X154170000Y-104702380D01*
X154074761Y-104750000D01*
X154027142Y-104797619D01*
X153931904Y-104940476D01*
X153884285Y-105130952D01*
X153884285Y-105511904D01*
X153931904Y-105607142D01*
X153979523Y-105654761D01*
X154074761Y-105702380D01*
X154265238Y-105702380D01*
X154360476Y-105654761D01*
X154408095Y-105607142D01*
X154455714Y-105511904D01*
X154455714Y-105273809D01*
X154408095Y-105178571D01*
X154360476Y-105130952D01*
X154265238Y-105083333D01*
X154074761Y-105083333D01*
X153979523Y-105130952D01*
X153931904Y-105178571D01*
X153884285Y-105273809D01*
%TO.C,U2*%
X151638095Y-99782380D02*
X151638095Y-100591904D01*
X151685714Y-100687142D01*
X151733333Y-100734761D01*
X151828571Y-100782380D01*
X152019047Y-100782380D01*
X152114285Y-100734761D01*
X152161904Y-100687142D01*
X152209523Y-100591904D01*
X152209523Y-99782380D01*
X152638095Y-99877619D02*
X152685714Y-99830000D01*
X152780952Y-99782380D01*
X153019047Y-99782380D01*
X153114285Y-99830000D01*
X153161904Y-99877619D01*
X153209523Y-99972857D01*
X153209523Y-100068095D01*
X153161904Y-100210952D01*
X152590476Y-100782380D01*
X153209523Y-100782380D01*
X154825700Y-104744780D02*
X154825700Y-104982876D01*
X154587604Y-104887638D02*
X154825700Y-104982876D01*
X155063795Y-104887638D01*
X154682842Y-105173352D02*
X154825700Y-104982876D01*
X154968557Y-105173352D01*
%TO.C,TP4*%
X130818095Y-56602380D02*
X131389523Y-56602380D01*
X131103809Y-57602380D02*
X131103809Y-56602380D01*
X131722857Y-57602380D02*
X131722857Y-56602380D01*
X132103809Y-56602380D01*
X132199047Y-56650000D01*
X132246666Y-56697619D01*
X132294285Y-56792857D01*
X132294285Y-56935714D01*
X132246666Y-57030952D01*
X132199047Y-57078571D01*
X132103809Y-57126190D01*
X131722857Y-57126190D01*
X133151428Y-56935714D02*
X133151428Y-57602380D01*
X132913333Y-56554761D02*
X132675238Y-57269047D01*
X133294285Y-57269047D01*
%TO.C,TP5*%
X175968095Y-106092380D02*
X176539523Y-106092380D01*
X176253809Y-107092380D02*
X176253809Y-106092380D01*
X176872857Y-107092380D02*
X176872857Y-106092380D01*
X177253809Y-106092380D01*
X177349047Y-106140000D01*
X177396666Y-106187619D01*
X177444285Y-106282857D01*
X177444285Y-106425714D01*
X177396666Y-106520952D01*
X177349047Y-106568571D01*
X177253809Y-106616190D01*
X176872857Y-106616190D01*
X178349047Y-106092380D02*
X177872857Y-106092380D01*
X177825238Y-106568571D01*
X177872857Y-106520952D01*
X177968095Y-106473333D01*
X178206190Y-106473333D01*
X178301428Y-106520952D01*
X178349047Y-106568571D01*
X178396666Y-106663809D01*
X178396666Y-106901904D01*
X178349047Y-106997142D01*
X178301428Y-107044761D01*
X178206190Y-107092380D01*
X177968095Y-107092380D01*
X177872857Y-107044761D01*
X177825238Y-106997142D01*
%TO.C,JP3*%
X164901666Y-42632380D02*
X164901666Y-43346666D01*
X164854047Y-43489523D01*
X164758809Y-43584761D01*
X164615952Y-43632380D01*
X164520714Y-43632380D01*
X165377857Y-43632380D02*
X165377857Y-42632380D01*
X165758809Y-42632380D01*
X165854047Y-42680000D01*
X165901666Y-42727619D01*
X165949285Y-42822857D01*
X165949285Y-42965714D01*
X165901666Y-43060952D01*
X165854047Y-43108571D01*
X165758809Y-43156190D01*
X165377857Y-43156190D01*
X166282619Y-42632380D02*
X166901666Y-42632380D01*
X166568333Y-43013333D01*
X166711190Y-43013333D01*
X166806428Y-43060952D01*
X166854047Y-43108571D01*
X166901666Y-43203809D01*
X166901666Y-43441904D01*
X166854047Y-43537142D01*
X166806428Y-43584761D01*
X166711190Y-43632380D01*
X166425476Y-43632380D01*
X166330238Y-43584761D01*
X166282619Y-43537142D01*
%TO.C,C9*%
X153503333Y-44147142D02*
X153455714Y-44194761D01*
X153312857Y-44242380D01*
X153217619Y-44242380D01*
X153074761Y-44194761D01*
X152979523Y-44099523D01*
X152931904Y-44004285D01*
X152884285Y-43813809D01*
X152884285Y-43670952D01*
X152931904Y-43480476D01*
X152979523Y-43385238D01*
X153074761Y-43290000D01*
X153217619Y-43242380D01*
X153312857Y-43242380D01*
X153455714Y-43290000D01*
X153503333Y-43337619D01*
X153979523Y-44242380D02*
X154170000Y-44242380D01*
X154265238Y-44194761D01*
X154312857Y-44147142D01*
X154408095Y-44004285D01*
X154455714Y-43813809D01*
X154455714Y-43432857D01*
X154408095Y-43337619D01*
X154360476Y-43290000D01*
X154265238Y-43242380D01*
X154074761Y-43242380D01*
X153979523Y-43290000D01*
X153931904Y-43337619D01*
X153884285Y-43432857D01*
X153884285Y-43670952D01*
X153931904Y-43766190D01*
X153979523Y-43813809D01*
X154074761Y-43861428D01*
X154265238Y-43861428D01*
X154360476Y-43813809D01*
X154408095Y-43766190D01*
X154455714Y-43670952D01*
%TO.C,D1*%
X134912380Y-102745595D02*
X133912380Y-102745595D01*
X133912380Y-102507500D01*
X133960000Y-102364642D01*
X134055238Y-102269404D01*
X134150476Y-102221785D01*
X134340952Y-102174166D01*
X134483809Y-102174166D01*
X134674285Y-102221785D01*
X134769523Y-102269404D01*
X134864761Y-102364642D01*
X134912380Y-102507500D01*
X134912380Y-102745595D01*
X134912380Y-101221785D02*
X134912380Y-101793214D01*
X134912380Y-101507500D02*
X133912380Y-101507500D01*
X134055238Y-101602738D01*
X134150476Y-101697976D01*
X134198095Y-101793214D01*
%TO.C,TP3*%
X177808095Y-45172380D02*
X178379523Y-45172380D01*
X178093809Y-46172380D02*
X178093809Y-45172380D01*
X178712857Y-46172380D02*
X178712857Y-45172380D01*
X179093809Y-45172380D01*
X179189047Y-45220000D01*
X179236666Y-45267619D01*
X179284285Y-45362857D01*
X179284285Y-45505714D01*
X179236666Y-45600952D01*
X179189047Y-45648571D01*
X179093809Y-45696190D01*
X178712857Y-45696190D01*
X179617619Y-45172380D02*
X180236666Y-45172380D01*
X179903333Y-45553333D01*
X180046190Y-45553333D01*
X180141428Y-45600952D01*
X180189047Y-45648571D01*
X180236666Y-45743809D01*
X180236666Y-45981904D01*
X180189047Y-46077142D01*
X180141428Y-46124761D01*
X180046190Y-46172380D01*
X179760476Y-46172380D01*
X179665238Y-46124761D01*
X179617619Y-46077142D01*
%TO.C,L1*%
X175652133Y-37282380D02*
X175175942Y-37282380D01*
X175175942Y-36282380D01*
X176509276Y-37282380D02*
X175937847Y-37282380D01*
X176223561Y-37282380D02*
X176223561Y-36282380D01*
X176128323Y-36425238D01*
X176033085Y-36520476D01*
X175937847Y-36568095D01*
X172720000Y-37552380D02*
X172720000Y-37790476D01*
X172481904Y-37695238D02*
X172720000Y-37790476D01*
X172958095Y-37695238D01*
X172577142Y-37980952D02*
X172720000Y-37790476D01*
X172862857Y-37980952D01*
%TO.C,C3*%
X131913333Y-100847142D02*
X131865714Y-100894761D01*
X131722857Y-100942380D01*
X131627619Y-100942380D01*
X131484761Y-100894761D01*
X131389523Y-100799523D01*
X131341904Y-100704285D01*
X131294285Y-100513809D01*
X131294285Y-100370952D01*
X131341904Y-100180476D01*
X131389523Y-100085238D01*
X131484761Y-99990000D01*
X131627619Y-99942380D01*
X131722857Y-99942380D01*
X131865714Y-99990000D01*
X131913333Y-100037619D01*
X132246666Y-99942380D02*
X132865714Y-99942380D01*
X132532380Y-100323333D01*
X132675238Y-100323333D01*
X132770476Y-100370952D01*
X132818095Y-100418571D01*
X132865714Y-100513809D01*
X132865714Y-100751904D01*
X132818095Y-100847142D01*
X132770476Y-100894761D01*
X132675238Y-100942380D01*
X132389523Y-100942380D01*
X132294285Y-100894761D01*
X132246666Y-100847142D01*
%TO.C,TP6*%
X175968095Y-74342380D02*
X176539523Y-74342380D01*
X176253809Y-75342380D02*
X176253809Y-74342380D01*
X176872857Y-75342380D02*
X176872857Y-74342380D01*
X177253809Y-74342380D01*
X177349047Y-74390000D01*
X177396666Y-74437619D01*
X177444285Y-74532857D01*
X177444285Y-74675714D01*
X177396666Y-74770952D01*
X177349047Y-74818571D01*
X177253809Y-74866190D01*
X176872857Y-74866190D01*
X178301428Y-74342380D02*
X178110952Y-74342380D01*
X178015714Y-74390000D01*
X177968095Y-74437619D01*
X177872857Y-74580476D01*
X177825238Y-74770952D01*
X177825238Y-75151904D01*
X177872857Y-75247142D01*
X177920476Y-75294761D01*
X178015714Y-75342380D01*
X178206190Y-75342380D01*
X178301428Y-75294761D01*
X178349047Y-75247142D01*
X178396666Y-75151904D01*
X178396666Y-74913809D01*
X178349047Y-74818571D01*
X178301428Y-74770952D01*
X178206190Y-74723333D01*
X178015714Y-74723333D01*
X177920476Y-74770952D01*
X177872857Y-74818571D01*
X177825238Y-74913809D01*
%TO.C,JP4*%
X169346666Y-43902380D02*
X169346666Y-44616666D01*
X169299047Y-44759523D01*
X169203809Y-44854761D01*
X169060952Y-44902380D01*
X168965714Y-44902380D01*
X169822857Y-44902380D02*
X169822857Y-43902380D01*
X170203809Y-43902380D01*
X170299047Y-43950000D01*
X170346666Y-43997619D01*
X170394285Y-44092857D01*
X170394285Y-44235714D01*
X170346666Y-44330952D01*
X170299047Y-44378571D01*
X170203809Y-44426190D01*
X169822857Y-44426190D01*
X171251428Y-44235714D02*
X171251428Y-44902380D01*
X171013333Y-43854761D02*
X170775238Y-44569047D01*
X171394285Y-44569047D01*
%TO.C,U1*%
X144018095Y-70522380D02*
X144018095Y-71331904D01*
X144065714Y-71427142D01*
X144113333Y-71474761D01*
X144208571Y-71522380D01*
X144399047Y-71522380D01*
X144494285Y-71474761D01*
X144541904Y-71427142D01*
X144589523Y-71331904D01*
X144589523Y-70522380D01*
X145589523Y-71522380D02*
X145018095Y-71522380D01*
X145303809Y-71522380D02*
X145303809Y-70522380D01*
X145208571Y-70665238D01*
X145113333Y-70760476D01*
X145018095Y-70808095D01*
%TO.C,TP11*%
X162791904Y-107362380D02*
X163363333Y-107362380D01*
X163077619Y-108362380D02*
X163077619Y-107362380D01*
X163696666Y-108362380D02*
X163696666Y-107362380D01*
X164077619Y-107362380D01*
X164172857Y-107410000D01*
X164220476Y-107457619D01*
X164268095Y-107552857D01*
X164268095Y-107695714D01*
X164220476Y-107790952D01*
X164172857Y-107838571D01*
X164077619Y-107886190D01*
X163696666Y-107886190D01*
X165220476Y-108362380D02*
X164649047Y-108362380D01*
X164934761Y-108362380D02*
X164934761Y-107362380D01*
X164839523Y-107505238D01*
X164744285Y-107600476D01*
X164649047Y-107648095D01*
X166172857Y-108362380D02*
X165601428Y-108362380D01*
X165887142Y-108362380D02*
X165887142Y-107362380D01*
X165791904Y-107505238D01*
X165696666Y-107600476D01*
X165601428Y-107648095D01*
%TO.C,TP8*%
X126438095Y-71802380D02*
X127009523Y-71802380D01*
X126723809Y-72802380D02*
X126723809Y-71802380D01*
X127342857Y-72802380D02*
X127342857Y-71802380D01*
X127723809Y-71802380D01*
X127819047Y-71850000D01*
X127866666Y-71897619D01*
X127914285Y-71992857D01*
X127914285Y-72135714D01*
X127866666Y-72230952D01*
X127819047Y-72278571D01*
X127723809Y-72326190D01*
X127342857Y-72326190D01*
X128485714Y-72230952D02*
X128390476Y-72183333D01*
X128342857Y-72135714D01*
X128295238Y-72040476D01*
X128295238Y-71992857D01*
X128342857Y-71897619D01*
X128390476Y-71850000D01*
X128485714Y-71802380D01*
X128676190Y-71802380D01*
X128771428Y-71850000D01*
X128819047Y-71897619D01*
X128866666Y-71992857D01*
X128866666Y-72040476D01*
X128819047Y-72135714D01*
X128771428Y-72183333D01*
X128676190Y-72230952D01*
X128485714Y-72230952D01*
X128390476Y-72278571D01*
X128342857Y-72326190D01*
X128295238Y-72421428D01*
X128295238Y-72611904D01*
X128342857Y-72707142D01*
X128390476Y-72754761D01*
X128485714Y-72802380D01*
X128676190Y-72802380D01*
X128771428Y-72754761D01*
X128819047Y-72707142D01*
X128866666Y-72611904D01*
X128866666Y-72421428D01*
X128819047Y-72326190D01*
X128771428Y-72278571D01*
X128676190Y-72230952D01*
%TO.C,SW1*%
X120586666Y-39284761D02*
X120729523Y-39332380D01*
X120967619Y-39332380D01*
X121062857Y-39284761D01*
X121110476Y-39237142D01*
X121158095Y-39141904D01*
X121158095Y-39046666D01*
X121110476Y-38951428D01*
X121062857Y-38903809D01*
X120967619Y-38856190D01*
X120777142Y-38808571D01*
X120681904Y-38760952D01*
X120634285Y-38713333D01*
X120586666Y-38618095D01*
X120586666Y-38522857D01*
X120634285Y-38427619D01*
X120681904Y-38380000D01*
X120777142Y-38332380D01*
X121015238Y-38332380D01*
X121158095Y-38380000D01*
X121491428Y-38332380D02*
X121729523Y-39332380D01*
X121920000Y-38618095D01*
X122110476Y-39332380D01*
X122348571Y-38332380D01*
X123253333Y-39332380D02*
X122681904Y-39332380D01*
X122967619Y-39332380D02*
X122967619Y-38332380D01*
X122872380Y-38475238D01*
X122777142Y-38570476D01*
X122681904Y-38618095D01*
%TO.C,TP1*%
X141678095Y-108632380D02*
X142249523Y-108632380D01*
X141963809Y-109632380D02*
X141963809Y-108632380D01*
X142582857Y-109632380D02*
X142582857Y-108632380D01*
X142963809Y-108632380D01*
X143059047Y-108680000D01*
X143106666Y-108727619D01*
X143154285Y-108822857D01*
X143154285Y-108965714D01*
X143106666Y-109060952D01*
X143059047Y-109108571D01*
X142963809Y-109156190D01*
X142582857Y-109156190D01*
X144106666Y-109632380D02*
X143535238Y-109632380D01*
X143820952Y-109632380D02*
X143820952Y-108632380D01*
X143725714Y-108775238D01*
X143630476Y-108870476D01*
X143535238Y-108918095D01*
%TO.C,JP2*%
X146032380Y-66238333D02*
X146746666Y-66238333D01*
X146889523Y-66285952D01*
X146984761Y-66381190D01*
X147032380Y-66524047D01*
X147032380Y-66619285D01*
X147032380Y-65762142D02*
X146032380Y-65762142D01*
X146032380Y-65381190D01*
X146080000Y-65285952D01*
X146127619Y-65238333D01*
X146222857Y-65190714D01*
X146365714Y-65190714D01*
X146460952Y-65238333D01*
X146508571Y-65285952D01*
X146556190Y-65381190D01*
X146556190Y-65762142D01*
X146127619Y-64809761D02*
X146080000Y-64762142D01*
X146032380Y-64666904D01*
X146032380Y-64428809D01*
X146080000Y-64333571D01*
X146127619Y-64285952D01*
X146222857Y-64238333D01*
X146318095Y-64238333D01*
X146460952Y-64285952D01*
X147032380Y-64857380D01*
X147032380Y-64238333D01*
%TO.C,CN10*%
X177268333Y-58777142D02*
X177220714Y-58824761D01*
X177077857Y-58872380D01*
X176982619Y-58872380D01*
X176839761Y-58824761D01*
X176744523Y-58729523D01*
X176696904Y-58634285D01*
X176649285Y-58443809D01*
X176649285Y-58300952D01*
X176696904Y-58110476D01*
X176744523Y-58015238D01*
X176839761Y-57920000D01*
X176982619Y-57872380D01*
X177077857Y-57872380D01*
X177220714Y-57920000D01*
X177268333Y-57967619D01*
X177696904Y-58872380D02*
X177696904Y-57872380D01*
X178268333Y-58872380D01*
X178268333Y-57872380D01*
X179268333Y-58872380D02*
X178696904Y-58872380D01*
X178982619Y-58872380D02*
X178982619Y-57872380D01*
X178887380Y-58015238D01*
X178792142Y-58110476D01*
X178696904Y-58158095D01*
X179887380Y-57872380D02*
X179982619Y-57872380D01*
X180077857Y-57920000D01*
X180125476Y-57967619D01*
X180173095Y-58062857D01*
X180220714Y-58253333D01*
X180220714Y-58491428D01*
X180173095Y-58681904D01*
X180125476Y-58777142D01*
X180077857Y-58824761D01*
X179982619Y-58872380D01*
X179887380Y-58872380D01*
X179792142Y-58824761D01*
X179744523Y-58777142D01*
X179696904Y-58681904D01*
X179649285Y-58491428D01*
X179649285Y-58253333D01*
X179696904Y-58062857D01*
X179744523Y-57967619D01*
X179792142Y-57920000D01*
X179887380Y-57872380D01*
%TO.C,CN7*%
X119959523Y-58547142D02*
X119911904Y-58594761D01*
X119769047Y-58642380D01*
X119673809Y-58642380D01*
X119530952Y-58594761D01*
X119435714Y-58499523D01*
X119388095Y-58404285D01*
X119340476Y-58213809D01*
X119340476Y-58070952D01*
X119388095Y-57880476D01*
X119435714Y-57785238D01*
X119530952Y-57690000D01*
X119673809Y-57642380D01*
X119769047Y-57642380D01*
X119911904Y-57690000D01*
X119959523Y-57737619D01*
X120388095Y-58642380D02*
X120388095Y-57642380D01*
X120959523Y-58642380D01*
X120959523Y-57642380D01*
X121340476Y-57642380D02*
X122007142Y-57642380D01*
X121578571Y-58642380D01*
D12*
%TO.C,C5*%
X140253767Y-70360000D02*
X139961233Y-70360000D01*
X140253767Y-69340000D02*
X139961233Y-69340000D01*
%TO.C,R1*%
X130300000Y-48113733D02*
X130300000Y-48406267D01*
X131320000Y-48113733D02*
X131320000Y-48406267D01*
%TO.C,R3*%
X146196267Y-50290000D02*
X145903733Y-50290000D01*
X146196267Y-51310000D02*
X145903733Y-51310000D01*
%TO.C,TP10*%
X160250000Y-99060000D02*
G75*
G03*
X160250000Y-99060000I-1500000J0D01*
G01*
%TO.C,C7*%
X153523733Y-39880000D02*
X153816267Y-39880000D01*
X153523733Y-38860000D02*
X153816267Y-38860000D01*
%TO.C,R4*%
X160573767Y-103120000D02*
X160281233Y-103120000D01*
X160573767Y-102100000D02*
X160281233Y-102100000D01*
%TO.C,TP2*%
X132310000Y-105410000D02*
G75*
G03*
X132310000Y-105410000I-1500000J0D01*
G01*
%TO.C,U4*%
X147187500Y-45110000D02*
X145387500Y-45110000D01*
X147187500Y-48230000D02*
X146387500Y-48230000D01*
X147187500Y-45110000D02*
X147987500Y-45110000D01*
X147187500Y-48230000D02*
X147987500Y-48230000D01*
%TO.C,TP9*%
X128500000Y-63500000D02*
G75*
G03*
X128500000Y-63500000I-1500000J0D01*
G01*
%TO.C,U3*%
X175260000Y-46700000D02*
X176060000Y-46700000D01*
X175260000Y-46700000D02*
X173460000Y-46700000D01*
X175260000Y-49820000D02*
X176060000Y-49820000D01*
X175260000Y-49820000D02*
X174460000Y-49820000D01*
%TO.C,L2*%
X149999700Y-37960300D02*
X144640300Y-37960300D01*
X144640300Y-37960300D02*
X144640300Y-38262560D01*
X149999700Y-43319700D02*
X149999700Y-43017440D01*
X149999700Y-38262560D02*
X149999700Y-37960300D01*
X144640300Y-43319700D02*
X149999700Y-43319700D01*
X144640300Y-43017440D02*
X144640300Y-43319700D01*
%TO.C,TP13*%
X147550000Y-100330000D02*
G75*
G03*
X147550000Y-100330000I-1500000J0D01*
G01*
%TO.C,TP12*%
X158980000Y-106680000D02*
G75*
G03*
X158980000Y-106680000I-1500000J0D01*
G01*
%TO.C,TP7*%
X153265000Y-55880000D02*
G75*
G03*
X153265000Y-55880000I-1500000J0D01*
G01*
%TO.C,C2*%
X137013733Y-99570000D02*
X137306267Y-99570000D01*
X137013733Y-98550000D02*
X137306267Y-98550000D01*
%TO.C,C6*%
X183851250Y-49361150D02*
X183063750Y-49361150D01*
X178200000Y-56814900D02*
X180550000Y-56814900D01*
X179264437Y-49994900D02*
X178200000Y-51059337D01*
X178200000Y-51059337D02*
X178200000Y-56814900D01*
X183955563Y-49994900D02*
X182670000Y-49994900D01*
X185020000Y-51059337D02*
X185020000Y-56814900D01*
X183457500Y-48967400D02*
X183457500Y-49754900D01*
X183955563Y-49994900D02*
X185020000Y-51059337D01*
X185020000Y-56814900D02*
X182670000Y-56814900D01*
X179264437Y-49994900D02*
X180550000Y-49994900D01*
%TO.C,JP1*%
X174495000Y-51735000D02*
X174495000Y-51135000D01*
X177295000Y-51135000D02*
X177295000Y-51735000D01*
X175195000Y-50435000D02*
X176595000Y-50435000D01*
X176595000Y-52435000D02*
X175195000Y-52435000D01*
X176595000Y-52435000D02*
G75*
G03*
X177295000Y-51735000I1J699999D01*
G01*
X175195000Y-50435000D02*
G75*
G03*
X174495000Y-51135000I-1J-699999D01*
G01*
X177295000Y-51135000D02*
G75*
G03*
X176595000Y-50435000I-699999J1D01*
G01*
X174495000Y-51735000D02*
G75*
G03*
X175195000Y-52435000I699999J-1D01*
G01*
%TO.C,J1*%
X172785000Y-106675000D02*
X172785000Y-108005000D01*
X170185000Y-108005000D02*
X167585000Y-108005000D01*
X167585000Y-108005000D02*
X167585000Y-57085000D01*
X172785000Y-105405000D02*
X170185000Y-105405000D01*
X172785000Y-57085000D02*
X167585000Y-57085000D01*
X170185000Y-105405000D02*
X170185000Y-108005000D01*
X172785000Y-105405000D02*
X172785000Y-57085000D01*
X172785000Y-108005000D02*
X171455000Y-108005000D01*
%TO.C,R5*%
X140460000Y-101861233D02*
X140460000Y-102153767D01*
X141480000Y-101861233D02*
X141480000Y-102153767D01*
%TO.C,C4*%
X137920000Y-101861233D02*
X137920000Y-102153767D01*
X138940000Y-101861233D02*
X138940000Y-102153767D01*
%TO.C,C1*%
X170690000Y-39516267D02*
X170690000Y-39223733D01*
X169670000Y-39516267D02*
X169670000Y-39223733D01*
%TO.C,D2*%
X137013733Y-104900000D02*
X137306267Y-104900000D01*
X137013733Y-105920000D02*
X137306267Y-105920000D01*
%TO.C,R2*%
X151276267Y-50290000D02*
X150983733Y-50290000D01*
X151276267Y-51310000D02*
X150983733Y-51310000D01*
%TO.C,D3*%
X129411000Y-43970000D02*
X129730000Y-43970000D01*
X131890000Y-43970000D02*
X132209000Y-43970000D01*
X131890000Y-43593330D02*
G75*
G03*
X131890961Y-40227287I-1080000J1683330D01*
G01*
X132208749Y-43970000D02*
G75*
G03*
X131890724Y-39666758I-1398748J2060000D01*
G01*
X129729039Y-40227287D02*
G75*
G03*
X129730000Y-43593330I1080961J-1682713D01*
G01*
X129729276Y-39666758D02*
G75*
G03*
X129411251Y-43970000I1080723J-2243242D01*
G01*
%TO.C,C8*%
X147173733Y-69340000D02*
X147466267Y-69340000D01*
X147173733Y-70360000D02*
X147466267Y-70360000D01*
%TO.C,R6*%
X153523733Y-107190000D02*
X153816267Y-107190000D01*
X153523733Y-106170000D02*
X153816267Y-106170000D01*
%TO.C,U2*%
X154051000Y-101219000D02*
X150749000Y-101219000D01*
X150749000Y-104521000D02*
X154051000Y-104521000D01*
D13*
X149009100Y-104060501D02*
X149009100Y-103679501D01*
X149009100Y-103679501D02*
X149263100Y-103679501D01*
X149263100Y-103679501D02*
X149263100Y-104060501D01*
X149263100Y-104060501D02*
X149009100Y-104060501D01*
G36*
X149263100Y-104060501D02*
G01*
X149009100Y-104060501D01*
X149009100Y-103679501D01*
X149263100Y-103679501D01*
X149263100Y-104060501D01*
G37*
X149263100Y-104060501D02*
X149009100Y-104060501D01*
X149009100Y-103679501D01*
X149263100Y-103679501D01*
X149263100Y-104060501D01*
D12*
%TO.C,TP4*%
X137390000Y-57150000D02*
G75*
G03*
X137390000Y-57150000I-1500000J0D01*
G01*
%TO.C,TP5*%
X178030000Y-104140000D02*
G75*
G03*
X178030000Y-104140000I-1500000J0D01*
G01*
%TO.C,JP3*%
X164405000Y-46990000D02*
X164405000Y-44390000D01*
X167065000Y-49590000D02*
X165735000Y-49590000D01*
X167065000Y-46990000D02*
X167065000Y-44390000D01*
X167065000Y-46990000D02*
X164405000Y-46990000D01*
X167065000Y-48260000D02*
X167065000Y-49590000D01*
X167065000Y-44390000D02*
X164405000Y-44390000D01*
%TO.C,C9*%
X155930000Y-49250000D02*
X155930000Y-48050000D01*
X151410000Y-45794437D02*
X152474437Y-44730000D01*
X155930000Y-44730000D02*
X155930000Y-45930000D01*
X150670000Y-45430000D02*
X151170000Y-45430000D01*
X150920000Y-45180000D02*
X150920000Y-45680000D01*
X151410000Y-48185563D02*
X151410000Y-48050000D01*
X152474437Y-49250000D02*
X155930000Y-49250000D01*
X151410000Y-45794437D02*
X151410000Y-45930000D01*
X152474437Y-44730000D02*
X155930000Y-44730000D01*
X151410000Y-48185563D02*
X152474437Y-49250000D01*
%TO.C,D1*%
X136400000Y-102153767D02*
X136400000Y-101861233D01*
X135380000Y-102153767D02*
X135380000Y-101861233D01*
%TO.C,TP3*%
X184380000Y-45720000D02*
G75*
G03*
X184380000Y-45720000I-1500000J0D01*
G01*
%TO.C,L1*%
X173139100Y-43319700D02*
X178498500Y-43319700D01*
X178498500Y-38262560D02*
X178498500Y-37960300D01*
X178498500Y-43319700D02*
X178498500Y-43017440D01*
X173139100Y-43017440D02*
X173139100Y-43319700D01*
X173139100Y-37960300D02*
X173139100Y-38262560D01*
X178498500Y-37960300D02*
X173139100Y-37960300D01*
%TO.C,C3*%
X132226267Y-98550000D02*
X131933733Y-98550000D01*
X132226267Y-99570000D02*
X131933733Y-99570000D01*
%TO.C,TP6*%
X178030000Y-72390000D02*
G75*
G03*
X178030000Y-72390000I-1500000J0D01*
G01*
%TO.C,JP4*%
X169880000Y-45575000D02*
X170480000Y-45575000D01*
X171180000Y-46275000D02*
X171180000Y-47675000D01*
X169180000Y-47675000D02*
X169180000Y-46275000D01*
X170480000Y-48375000D02*
X169880000Y-48375000D01*
X169880000Y-45575000D02*
G75*
G03*
X169180000Y-46275000I-1J-699999D01*
G01*
X169180000Y-47675000D02*
G75*
G03*
X169880000Y-48375000I699999J-1D01*
G01*
X171180000Y-46275000D02*
G75*
G03*
X170480000Y-45575000I-699999J1D01*
G01*
X170480000Y-48375000D02*
G75*
G03*
X171180000Y-47675000I1J699999D01*
G01*
%TO.C,U1*%
X133930000Y-71970000D02*
X132930000Y-72970000D01*
X132930000Y-95670000D02*
X156630000Y-95670000D01*
X143780000Y-71970000D02*
X133930000Y-71970000D01*
X156630000Y-95670000D02*
X156630000Y-71970000D01*
X156630000Y-71970000D02*
X145780000Y-71970000D01*
X132930000Y-72970000D02*
X132930000Y-95670000D01*
%TO.C,TP11*%
X165330000Y-105410000D02*
G75*
G03*
X165330000Y-105410000I-1500000J0D01*
G01*
%TO.C,TP8*%
X128500000Y-69850000D02*
G75*
G03*
X128500000Y-69850000I-1500000J0D01*
G01*
%TO.C,SW1*%
X125040000Y-41840000D02*
X125040000Y-44520000D01*
X118800000Y-44520000D02*
X118800000Y-41840000D01*
X118950000Y-46300000D02*
X124890000Y-46300000D01*
X118950000Y-40060000D02*
X124890000Y-40060000D01*
X123334214Y-43180000D02*
G75*
G03*
X123334214Y-43180000I-1414214J0D01*
G01*
%TO.C,TP1*%
X143740000Y-106680000D02*
G75*
G03*
X143740000Y-106680000I-1500000J0D01*
G01*
%TO.C,JP2*%
X145780000Y-64705000D02*
X145780000Y-66105000D01*
X143780000Y-66105000D02*
X143780000Y-64705000D01*
X144480000Y-64005000D02*
X145080000Y-64005000D01*
X145080000Y-66805000D02*
X144480000Y-66805000D01*
X144480000Y-64005000D02*
G75*
G03*
X143780000Y-64705000I-1J-699999D01*
G01*
X145080000Y-66805000D02*
G75*
G03*
X145780000Y-66105000I1J699999D01*
G01*
X143780000Y-66105000D02*
G75*
G03*
X144480000Y-66805000I699999J-1D01*
G01*
X145780000Y-64705000D02*
G75*
G03*
X145080000Y-64005000I-699999J1D01*
G01*
%TD*%
M02*
